; OM File Header - Saved 2013/11/03 1:55:47
; (6.070004 :patc (om-api:om-make-point 10 60) (om-api:om-make-point 0 0) (om-api:om-make-point 748 553) "" 183 0 "2013/10/29 16:00:16" "2013/11/03 0:46:33")
; End File Header
(in-package :om)(load-lib-for (quote nil))(setf *om-current-persistent* (om-load-patch1 "arpejos" (quote ((om-load-boxcall (quote genfun) "PERMUT-RANDOM" (quote permut-random) (quote ((om-load-inputfun (quote input-funbox) "a list" "LIST" nil))) (om-make-point 308 288) nil nil nil nil 1) (om-load-boxcall (quote lispfun) "APPEND 2" (quote append) (quote ((om-load-inputfun (quote input-funbox) "add-input" "add-input" nil) (om-load-inputfun (quote input-funbox) "add-input" "add-input" nil) (om-load-inputfun (quote input-funbox) "add-input" "add-input" nil) (om-load-inputfun (quote input-funbox) "add-input" "add-input" nil) (om-load-inputfun (quote input-funbox) "add-input" "add-input" nil))) (om-make-point 189 367) nil nil nil nil 1) (om-load-boxcall (quote lispfun) "REVERSE" (quote reverse) (quote ((om-load-inputfun (quote input-funbox) "SEQUENCE" "SEQUENCE" nil))) (om-make-point 262 267) nil nil nil nil 1) (om-load-boxcall (quote lispfun) "APPEND" (quote append) (quote ((om-load-inputfun (quote input-funbox) "add-input" "add-input" nil) (om-load-inputfun (quote input-funbox) "add-input" "add-input" nil) (om-load-inputfun (quote input-funbox) "add-input" "add-input" nil))) (om-make-point 151 280) nil nil nil nil 1) (om-load-boxcall (quote genfun) "OM-" (quote om-) (quote ((om-load-inputfun (quote input-funbox) "number or list" "ARG1" 0) (om-load-inputfun (quote input-funbox) "number or list" "ARG2" 1200))) (om-make-point 198 234) nil nil nil nil 1) (om-load-boxcall (quote genfun) "OM+" (quote om+) (quote ((om-load-inputfun (quote input-funbox) "number or list" "ARG1" 0) (om-load-inputfun (quote input-funbox) "number or list" "ARG2" 1200))) (om-make-point 172 233) nil nil nil nil 1) (om-load-boxcomment "comment" (om-make-point 199 52) (quote "3 oitavas das notas") "" (om-make-point 417 299) nil (om-make-color 0 0 0) (om-make-font "Bitstream Vera Sans" 12 :family "Bitstream Vera Sans" :style (quote (:plain)) :mode (quote nil))) (om-load-editor-box1 "CHORD-SEQ" (quote chord-seq) (quote ((om-load-inputfun (quote input-funbox) "object" "self" nil) (om-load-inputfun (quote input-funbox) "pitches (mc): list or list of lists" "lmidic" (list 6000)) (om-load-inputfun (quote input-funbox) "onsets (ms): list" "lonset" (list 0 125)) (om-load-inputfun (quote input-funbox) "durations (ms): list or list of lists" "ldur" (list 1000)) (om-load-inputfun (quote input-funbox) "velocities (0-127): list or list of lists" "lvel" (list 100)) (om-load-inputfun (quote input-funbox) "offsets (ms): list or list of lists" "loffset" (list 0)) (om-load-inputfun (quote input-funbox) "MIDI channels (1-16): list or list of lists" "lchan" (list 1)) (om-load-inputfun (quote input-funbox) "relative chords duration (0-100)" "legato" 0))) (om-make-point 90 425) (om-make-point 508 149) (let ((newobj (when (find-class (quote chord-seq) nil) (make-instance (quote chord-seq) :lmidic (quote ((6000) (7200) (7700) (8600) (7200) (8400) (8900) (9800) (4800) (6000) (6500) (7400) (7400) (6500) (6000) (4800) (9800) (8900) (8400) (7200) (8600) (7700) (7200) (6000) (7200) (7200) (7400) (6000) (8900) (6000) (9800) (7700) (8600) (4800) (6500) (8400) (6000) (7200) (7700) (8600) (7200) (8400) (8900) (9800) (4800) (6000) (6500) (7400))) :lonset (quote (0 125 250 375 500 625 750 875 1000 1125 1250 1375 1500 1625 1750 1875 2000 2125 2250 2375 2500 2625 2750 2875 3000 3125 3250 3375 3500 3625 3750 3875 4000 4125 4250 4375 4500 4625 4750 4875 5000 5125 5250 5375 5500 5625 5750 5875 6875)) :ldur (quote ((1000) (1000) (1000) (1000) (1000) (1000) (1000) (1000) (1000) (1000) (1000) (1000) (1000) (1000) (1000) (1000) (1000) (1000) (1000) (1000) (1000) (1000) (1000) (1000) (1000) (1000) (1000) (1000) (1000) (1000) (1000) (1000) (1000) (1000) (1000) (1000) (1000) (1000) (1000) (1000) (1000) (1000) (1000) (1000) (1000) (1000) (1000) (1000))) :lvel (quote ((100) (100) (100) (100) (100) (100) (100) (100) (100) (100) (100) (100) (100) (100) (100) (100) (100) (100) (100) (100) (100) (100) (100) (100) (100) (100) (100) (100) (100) (100) (100) (100) (100) (100) (100) (100) (100) (100) (100) (100) (100) (100) (100) (100) (100) (100) (100) (100))) :loffset (quote ((0) (0) (0) (0) (0) (0) (0) (0) (0) (0) (0) (0) (0) (0) (0) (0) (0) (0) (0) (0) (0) (0) (0) (0) (0) (0) (0) (0) (0) (0) (0) (0) (0) (0) (0) (0) (0) (0) (0) (0) (0) (0) (0) (0) (0) (0) (0) (0))) :lchan (quote ((1) (1) (1) (1) (1) (1) (1) (1) (1) (1) (1) (1) (1) (1) (1) (1) (1) (1) (1) (1) (1) (1) (1) (1) (1) (1) (1) (1) (1) (1) (1) (1) (1) (1) (1) (1) (1) (1) (1) (1) (1) (1) (1) (1) (1) (1) (1) (1))) :legato 0)))) (load-port-info newobj (quote ((0) (0) (0) (0) (0) (0) (0) (0) (0) (0) (0) (0) (0) (0) (0) (0) (0) (0) (0) (0) (0) (0) (0) (0) (0) (0) (0) (0) (0) (0) (0) (0) (0) (0) (0) (0) (0) (0) (0) (0) (0) (0) (0) (0) (0) (0) (0) (0)))) (init-mus-color newobj (quote nil)) (set-extra-pairs newobj (quote nil)) (set-patch-pairs newobj (quote nil)) (set-name newobj nil) (set-tonalite newobj nil) newobj) nil nil (pairlis (quote (scale show-stems cursor-mode obj-mode score-mode winpos winsize mode grillestep notechancolor? zoom player inport outport deltapict cmnpref staff fontsize approx)) (list nil (quote t) (quote :normal) 1 0 (om-make-point 400 20) (om-make-point 370 280) 0 1000 nil 1 (quote :jackmidi) 0 nil (om-make-point 0 0) (let ((newobj (make-instance (quote edition-values)))) (setf (paper-size newobj) (om-make-point 600 800)) (setf (top-margin newobj) 2) (setf (left-margin newobj) 1) (setf (right-margin newobj) 1) (setf (bottom-margin newobj) 1) (setf (orientation newobj) nil) (setf (scale newobj) nil) (setf (system-space newobj) (quote (1))) (setf (system-color newobj) (quote nil)) (setf (line-space newobj) 1) (setf (title newobj) nil) (setf (show-title? newobj) nil) (setf (show-page? newobj) nil) (setf (sheet-id newobj) nil) (setf (page-mode newobj) nil) newobj) (quote g) 24 2)) t nil nil nil) (om-load-editor-box1 "CHORD" (quote chord) (quote ((om-load-inputfun (quote input-funbox) "object" "self" nil) (om-load-inputfun (quote input-funbox) "pitches (list of midicents)" "lmidic" (list 6000)) (om-load-inputfun (quote input-funbox) "velocities (list of values 0-127)" "lvel" (list 100)) (om-load-inputfun (quote input-funbox) "offsets (list of values in ms)" "loffset" (list 0)) (om-load-inputfun (quote input-funbox) "durations (list of values in ms)" "ldur" (list 1000)) (om-load-inputfun (quote input-funbox) "MIDI channels (list of values 0-16)" "lchan" (list 1)))) (om-make-point 153 57) (om-make-point 100 141) (let ((thechord (make-instance (quote chord) :lmidic (quote (6000 7200 7700 8600)) :ldur (quote (1000 1000 1000 1000)) :lvel (quote (80 80 80 80)) :loffset (quote (0 0 0 0)) :lchan (quote (1 1 1 1))))) (load-port-info thechord (quote (0 0 0 0))) (init-mus-color thechord (quote nil)) (set-extra-pairs thechord (quote nil)) (set-tonalite thechord nil) thechord) "x" nil (pairlis (quote (scale show-stems cursor-mode obj-mode score-mode winpos winsize mode grillestep notechancolor? zoom player inport outport deltapict cmnpref staff fontsize approx)) (list nil (quote t) (quote :normal) 0 0 (om-make-point 0 0) (om-make-point 370 280) 0 1000 nil 1 (quote :jackmidi) 0 nil (om-make-point 0 0) (let ((newobj (make-instance (quote edition-values)))) (setf (paper-size newobj) (om-make-point 600 800)) (setf (top-margin newobj) 2) (setf (left-margin newobj) 1) (setf (right-margin newobj) 1) (setf (bottom-margin newobj) 1) (setf (orientation newobj) nil) (setf (scale newobj) nil) (setf (system-space newobj) (quote (1))) (setf (system-color newobj) (quote nil)) (setf (line-space newobj) 1) (setf (title newobj) nil) (setf (show-title? newobj) nil) (setf (show-page? newobj) nil) (setf (sheet-id newobj) nil) (setf (page-mode newobj) nil) newobj) (quote g) 24 2)) t nil nil nil))) (quote ((3 0 0 0 ((om-make-point 174 322) (om-make-point 174 334) (om-make-point 256 219) (om-make-point 356 288)) 0) (3 0 1 0 nil 0) (2 0 1 1 nil 0) (0 0 1 2 nil 0) (3 0 1 3 nil 0) (3 0 2 0 nil 0) (8 1 3 0 nil 0) (5 0 3 1 nil 0) (4 0 3 2 nil 0) (8 1 4 0 nil 0) (8 1 5 0 nil 0) (1 0 7 1 nil 0))) nil 6.070004))
