; OM File Header - Saved 2013/11/10 22:58:35
; (6.070004 :patc (om-make-point 172 10) (om-make-point 0 0) (om-make-point 1274 725) "" 183 0 "2013/11/04 1:07:08" "2013/11/10 21:39:37")
; End File Header
(in-package :om)(load-lib-for (quote nil))(setf *om-current-persistent* (om-load-patch1 "listas" (quote ((om-load-boxcomment "comment" (om-make-point 201 67) (quote "Filtra uma faixa de alcance,$ideal para definir ambitos de $vozes.") nil (om-make-point 747 583) nil (om-make-color 0 0 0) (om-make-font "Bitstream Vera Sans" 12 :family "Bitstream Vera Sans" :style (quote (:plain)) :mode (quote nil))) (om-load-editor-box1 "TEXT-BOX 17" (quote text-box) (quote ((om-load-inputfun (quote input-funbox) "dialog-item text (string)" "text" "untitled"))) (om-make-point 1032 565) (om-make-point 159 50) (om-make-dialog-item (quote text-box) (om-make-point 1 1) (om-make-point 139 23) "((1 2 3) 4)" :font (om-make-font "DejaVu Sans" 11.0D0 :family "DejaVu Sans" :style (quote (:plain)) :mode (quote nil))) nil nil (pairlis (quote (winsize winpos)) (list (om-make-point 335 275) (om-make-point 10 40))) t nil nil nil) (om-load-boxcall (quote bastype) "aux 40" (quote t) (quote nil) (om-make-point 1103 459) (om-make-point 46 32) (quote pass) "pass" nil) (om-load-boxcall (quote bastype) "aux 39" (quote t) (quote nil) (om-make-point 1054 418) (om-make-point 76 32) (list (list 1 2 3) 4) "((1 2 3) 4)" nil) (om-load-boxcall (quote bastype) "aux 38" (quote t) (quote nil) (om-make-point 976 437) (om-make-point 71 32) (quote numberp) "numberp" nil) (om-load-editor-box1 "TEXT-BOX 16" (quote text-box) (quote ((om-load-inputfun (quote input-funbox) "dialog-item text (string)" "text" "untitled"))) (om-make-point 752 535) (om-make-point 159 50) (om-make-dialog-item (quote text-box) (om-make-point 1 1) (om-make-point 139 23) "((1 2 3) (1 2))" :font (om-make-font "DejaVu Sans" 11.0D0 :family "DejaVu Sans" :style (quote (:plain)) :mode (quote nil))) nil nil (pairlis (quote (winsize winpos)) (list (om-make-point 335 275) (om-make-point 10 40))) t nil nil nil) (om-load-boxcall (quote bastype) "aux 37" (quote t) (quote nil) (om-make-point 874 427) (om-make-point 46 32) (quote pass) "pass" nil) (om-load-boxcall (quote bastype) "aux 36" (quote t) (quote nil) (om-make-point 807 399) (om-make-point 91 32) (list (list 0 2) (list 5 10)) "((0 2) (5 10))" nil) (om-load-boxcall (quote bastype) "aux 35" (quote t) (quote nil) (om-make-point 720 401) (om-make-point 79 32) (list 1 2 3 4 5) "(1 2 3 4 5)" nil) (om-load-boxcall (quote bastype) "aux 34" (quote t) (quote nil) (om-make-point 1140 212) (om-make-point 106 32) (list (list 0 1 0) (list 1 0 1)) "((0 1 0) (1 0 1))" nil) (om-load-boxcomment "comment" (om-make-point 86 27) (quote "\"butfirst\"") nil (om-make-point 1134 25) nil (om-make-color 0 0 0) (om-make-font "Bitstream Vera Sans" 12 :family "Bitstream Vera Sans" :style (quote (:plain)) :mode (quote nil))) (om-load-editor-box1 "TEXT-BOX 15" (quote text-box) (quote ((om-load-inputfun (quote input-funbox) "dialog-item text (string)" "text" "untitled"))) (om-make-point 580 496) (om-make-point 159 50) (om-make-dialog-item (quote text-box) (om-make-point 1 1) (om-make-point 139 23) "((1 2 3) (1 2))" :font (om-make-font "DejaVu Sans" 11.0D0 :family "DejaVu Sans" :style (quote (:plain)) :mode (quote nil))) nil nil (pairlis (quote (winsize winpos)) (list (om-make-point 335 275) (om-make-point 10 40))) t nil nil nil) (om-load-boxcall (quote bastype) "aux 33" (quote t) (quote nil) (om-make-point 471 408) (om-make-point 71 32) (quote numberp) "numberp" nil) (om-load-boxcall (quote bastype) "aux 32" (quote t) (quote nil) (om-make-point 505 361) (om-make-point 95 32) (list (list 1 2 3) (list 1 2)) "((1 2 3) (1 2))" nil) (om-load-boxcall (quote bastype) "aux 31" (quote t) (quote nil) (om-make-point 613 365) (om-make-point 27 32) 1 "1" nil) (om-load-boxcall (quote bastype) "aux 30" (quote t) (quote nil) (om-make-point 650 368) (om-make-point 46 32) (quote pass) "pass" nil) (om-load-editor-box1 "TEXT-BOX 14" (quote text-box) (quote ((om-load-inputfun (quote input-funbox) "dialog-item text (string)" "text" "untitled"))) (om-make-point 753 339) (om-make-point 260 50) (om-make-dialog-item (quote text-box) (om-make-point 1 1) (om-make-point 240 23) "(2 4 2 4 2 4 0 1 2 3 4 5 6 7 8)" :font (om-make-font "DejaVu Sans" 11.0D0 :family "DejaVu Sans" :style (quote (:plain)) :mode (quote nil))) nil nil (pairlis (quote (winsize winpos)) (list (om-make-point 335 275) (om-make-point 10 40))) t nil nil nil) (om-load-boxcall (quote bastype) "aux 29" (quote t) (quote nil) (om-make-point 834 245) (om-make-point 103 32) (list (quote 3*) (list 2 4) (quote |0_8|)) "(3* (2 4) |0_8|)" nil) (om-load-editor-box1 "TEXT-BOX 13" (quote text-box) (quote ((om-load-inputfun (quote input-funbox) "dialog-item text (string)" "text" "untitled"))) (om-make-point 928 162) (om-make-point 159 50) (om-make-dialog-item (quote text-box) (om-make-point 1 1) (om-make-point 139 23) "(1 2 3 4 5)" :font (om-make-font "DejaVu Sans" 11.0D0 :family "DejaVu Sans" :style (quote (:plain)) :mode (quote nil))) nil nil (pairlis (quote (winsize winpos)) (list (om-make-point 335 275) (om-make-point 10 40))) t nil nil nil) (om-load-boxcall (quote bastype) "aux 28" (quote t) (quote nil) (om-make-point 1044 40) (om-make-point 27 32) 1 "1" nil) (om-load-boxcall (quote bastype) "aux 27" (quote t) (quote nil) (om-make-point 1001 39) (om-make-point 34 32) (quote eq) "eq" nil) (om-load-boxcall (quote bastype) "aux 26" (quote t) (quote nil) (om-make-point 887 39) (om-make-point 112 32) (list 1 2 2 2 3 4 5 5) "(1 2 2 2 3 4 5 5)" nil) (om-load-editor-box1 "TEXT-BOX 12" (quote text-box) (quote ((om-load-inputfun (quote input-funbox) "dialog-item text (string)" "text" "untitled"))) (om-make-point 565 302) (om-make-point 159 50) (om-make-dialog-item (quote text-box) (om-make-point 1 1) (om-make-point 139 23) "(1 1 1 1 1)" :font (om-make-font "DejaVu Sans" 11.0D0 :family "DejaVu Sans" :style (quote (:plain)) :mode (quote nil))) nil nil (pairlis (quote (winsize winpos)) (list (om-make-point 335 275) (om-make-point 10 40))) t nil nil nil) (om-load-boxcall (quote bastype) "aux 25" (quote t) (quote nil) (om-make-point 589 170) (om-make-point 27 32) 5 "5" nil) (om-load-boxcall (quote bastype) "aux 24" (quote t) (quote nil) (om-make-point 748 178) (om-make-point 27 32) 1 "1" nil) (om-load-boxcall (quote bastype) "aux 23" (quote t) (quote nil) (om-make-point 567 14) (om-make-point 170 32) (list 0 1 2 3 4 5 6 7 8 9 10 11) "(0 1 2 3 4 5 6 7 8 9 10 11)" nil) (om-load-boxcall (quote bastype) "aux 22" (quote t) (quote nil) (om-make-point 765 15) (om-make-point 27 32) 4 "4" nil) (om-load-editor-box1 "TEXT-BOX 11" (quote text-box) (quote ((om-load-inputfun (quote input-funbox) "dialog-item text (string)" "text" "untitled"))) (om-make-point 635 117) (om-make-point 275 50) (om-make-dialog-item (quote text-box) (om-make-point 1 1) (om-make-point 255 23) "((0 4 8) (1 5 9) (2 6 10) (3 7 11))" :font (om-make-font "DejaVu Sans" 11.0D0 :family "DejaVu Sans" :style (quote (:plain)) :mode (quote nil))) nil nil (pairlis (quote (winsize winpos)) (list (om-make-point 335 275) (om-make-point 10 40))) t nil nil nil) (om-load-boxcomment "comment 8" (om-make-point 139 44) (quote "niveis de paranteses$que vai eliminar") "" (om-make-point 440 505) nil (om-make-color 0 0 0) (om-make-font "Bitstream Vera Sans" 12 :family "Bitstream Vera Sans" :style (quote (:plain)) :mode (quote nil))) (om-load-boxcall (quote bastype) "aux 21" (quote t) (quote nil) (om-make-point 437 548) (om-make-point 27 32) 1 "1" nil) (om-load-boxcall (quote bastype) "aux 20" (quote t) (quote nil) (om-make-point 311 499) (om-make-point 140 32) (list (list 1 2 3) (list 1 2 3 (list 4)) 3) "((1 2 3) ( 1 2 3 (4)) 3)" nil) (om-load-editor-box1 "TEXT-BOX 10" (quote text-box) (quote ((om-load-inputfun (quote input-funbox) "dialog-item text (string)" "text" "untitled"))) (om-make-point 372 603) (om-make-point 159 50) (om-make-dialog-item (quote text-box) (om-make-point 1 1) (om-make-point 139 23) "(1 2 3 1 2 3 (4) 3)" :font (om-make-font "DejaVu Sans" 11.0D0 :family "DejaVu Sans" :style (quote (:plain)) :mode (quote nil))) nil nil (pairlis (quote (winsize winpos)) (list (om-make-point 335 275) (om-make-point 10 40))) t nil nil nil) (om-load-editor-box1 "TEXT-BOX 9" (quote text-box) (quote ((om-load-inputfun (quote input-funbox) "dialog-item text (string)" "text" "untitled"))) (om-make-point 299 437) (om-make-point 159 50) (om-make-dialog-item (quote text-box) (om-make-point 1 1) (om-make-point 139 23) "((1 2 3) (4 5 6))" :font (om-make-font "DejaVu Sans" 11.0D0 :family "DejaVu Sans" :style (quote (:plain)) :mode (quote nil))) nil nil (pairlis (quote (winsize winpos)) (list (om-make-point 335 275) (om-make-point 10 40))) t nil nil nil) (om-load-boxcall (quote bastype) "aux 19" (quote t) (quote nil) (om-make-point 249 331) (om-make-point 90 32) (list 1 2 3 4 5 6) "(1 2 3 4 5 6)" nil) (om-load-boxcall (quote bastype) "aux 18" (quote t) (quote nil) (om-make-point 366 330) (om-make-point 27 32) 2 "2" nil) (om-load-boxcall (quote bastype) "aux 17" (quote t) (quote nil) (om-make-point 392 177) (om-make-point 68 32) (list 0 1 2 3) "(0 1 2 3)" nil) (om-load-boxcall (quote bastype) "aux 16" (quote t) (quote nil) (om-make-point 468 165) (om-make-point 46 32) (list (quote a) (quote b)) "(a b)" nil) (om-load-boxcall (quote bastype) "aux 15" (quote t) (quote nil) (om-make-point 522 176) (om-make-point 46 32) (list 1 3) "(1 3)" nil) (om-load-boxcall (quote bastype) "list" (quote list) (quote nil) (om-make-point 1126 50) (om-make-point 79 32) (list 0 0 1 2 3) "(0 0 1 2 3)" nil) (om-load-editor-box1 "TEXT-BOX 8" (quote text-box) (quote ((om-load-inputfun (quote input-funbox) "dialog-item text (string)" "text" "untitled"))) (om-make-point 1100 159) (om-make-point 159 50) (om-make-dialog-item (quote text-box) (om-make-point 1 1) (om-make-point 139 23) "(0 1 2 3)" :font (om-make-font "DejaVu Sans" 11.0D0 :family "DejaVu Sans" :style (quote (:plain)) :mode (quote nil))) nil nil (pairlis (quote (winsize winpos)) (list (om-make-point 335 275) (om-make-point 10 40))) t nil nil nil) (om-load-boxcall (quote lispfun) "CDR" (quote cdr) (quote ((om-load-inputfun (quote input-funbox) "X" "X" nil))) (om-make-point 1161 93) nil nil nil nil 1) (om-load-editor-box1 "TEXT-BOX 7" (quote text-box) (quote ((om-load-inputfun (quote input-funbox) "dialog-item text (string)" "text" "untitled"))) (om-make-point 355 272) (om-make-point 159 50) (om-make-dialog-item (quote text-box) (om-make-point 1 1) (om-make-point 139 23) "(0 a 1 2 b 3)" :font (om-make-font "DejaVu Sans" 11.0D0 :family "DejaVu Sans" :style (quote (:plain)) :mode (quote nil))) nil nil (pairlis (quote (winsize winpos)) (list (om-make-point 335 275) (om-make-point 10 40))) t nil nil nil) (om-load-editor-box1 "TEXT-BOX 6" (quote text-box) (quote ((om-load-inputfun (quote input-funbox) "dialog-item text (string)" "text" "untitled"))) (om-make-point 1084 342) (om-make-point 159 50) (om-make-dialog-item (quote text-box) (om-make-point 1 1) (om-make-point 139 23) "((0 1) (1 0) (0 1))" :font (om-make-font "DejaVu Sans" 11.0D0 :family "DejaVu Sans" :style (quote (:plain)) :mode (quote nil))) nil nil (pairlis (quote (winsize winpos)) (list (om-make-point 335 275) (om-make-point 10 40))) t nil nil nil) (om-load-editor-box1 "TEXT-BOX 5" (quote text-box) (quote ((om-load-inputfun (quote input-funbox) "dialog-item text (string)" "text" "untitled"))) (om-make-point 339 114) (om-make-point 159 50) (om-make-dialog-item (quote text-box) (om-make-point 1 1) (om-make-point 139 23) "(c)" :font (om-make-font "DejaVu Sans" 11.0D0 :family "DejaVu Sans" :style (quote (:plain)) :mode (quote nil))) nil nil (pairlis (quote (winsize winpos)) (list (om-make-point 335 275) (om-make-point 10 40))) t nil nil nil) (om-load-boxcomment "comment 7" (om-make-point 186 32) (quote "Filtra uma faixa de posições,$$") "" (om-make-point 445 90) nil (om-make-color 0 0 0) (om-make-font "Bitstream Vera Sans" 12 :family "Bitstream Vera Sans" :style (quote (:plain)) :mode (quote nil))) (om-load-boxcall (quote bastype) "aux 14" (quote t) (quote nil) (om-make-point 330 10) (om-make-point 78 32) (list (quote a) (quote b) (quote c) (quote d) (quote e)) "(a b c d e)" nil) (om-load-boxcall (quote bastype) "aux 13" (quote t) (quote nil) (om-make-point 471 36) (om-make-point 52 32) (quote reject) "reject" nil) (om-load-boxcall (quote bastype) "aux 12" (quote t) (quote nil) (om-make-point 415 10) (om-make-point 84 32) (list (list 0 1) (list 3 4)) "((0 1) (3 4))" nil) (om-load-boxcomment "comment 5" (om-make-point 354 42) (quote "*util para criar grupos de acordes a partir de melodias") "" (om-make-point 10 677) nil (om-make-color 1.0S0 0.0S0 0.0S0) (om-make-font "DejaVu Sans" 12.0D0 :family "DejaVu Sans" :style (quote (:bold)) :mode (quote nil))) (om-load-boxcomment "comment 6" (om-make-point 257 75) (quote "Agrupa elementos segundo$uma ordem dada de agrupamentos,$repetindo elementos do inicio quando$faltam (se em modo circular)*$") "" (om-make-point 130 565) nil (om-make-color 0 0 0) (om-make-font "Bitstream Vera Sans" 12 :family "Bitstream Vera Sans" :style (quote (:plain)) :mode (quote nil))) (om-load-editor-box1 "TEXT-BOX 4" (quote text-box) (quote ((om-load-inputfun (quote input-funbox) "dialog-item text (string)" "text" "untitled"))) (om-make-point 2 629) (om-make-point 203 50) (om-make-dialog-item (quote text-box) (om-make-point 1 1) (om-make-point 183 23) "((1) (2 3) (4) (1 1 1) (1 2))" :font (om-make-font "DejaVu Sans" 11.0D0 :family "DejaVu Sans" :style (quote (:plain)) :mode (quote nil))) nil nil (pairlis (quote (winsize winpos)) (list (om-make-point 335 275) (om-make-point 10 40))) t nil nil nil) (om-load-boxcall (quote bastype) "aux 11" (quote t) (quote nil) (om-make-point 204 527) (om-make-point 62 32) (quote circular) "circular" nil) (om-load-boxcall (quote bastype) "aux 10" (quote t) (quote nil) (om-make-point 116 519) (om-make-point 79 32) (list 1 2 1 3 2) "(1 2 1 3 2)" nil) (om-load-boxcall (quote bastype) "aux 9" (quote t) (quote nil) (om-make-point 14 519) (om-make-point 101 32) (list 1 2 3 4 1 1 1) "(1 2 3 4 1 1 1)" nil) (om-load-boxcall (quote lispfun) "REST" (quote rest) (quote ((om-load-inputfun (quote input-funbox) "LIST" "LIST" nil))) (om-make-point 1196 97) nil nil nil nil 1) (om-load-editor-box1 "TEXT-BOX 3" (quote text-box) (quote ((om-load-inputfun (quote input-funbox) "dialog-item text (string)" "text" "untitled"))) (om-make-point 3 457) (om-make-point 144 50) (om-make-dialog-item (quote text-box) (om-make-point 1 1) (om-make-point 124 23) "(0 a 2 b)" :font (om-make-font "DejaVu Sans" 11.0D0 :family "DejaVu Sans" :style (quote (:plain)) :mode (quote nil))) nil nil (pairlis (quote (winsize winpos)) (list (om-make-point 335 275) (om-make-point 10 40))) t nil nil nil) (om-load-boxcall (quote bastype) "aux 8" (quote t) (quote nil) (om-make-point 134 352) (om-make-point 56 32) (list (quote a) (quote b) (quote c)) "(a b c)" nil) (om-load-boxcall (quote bastype) "aux 7" (quote t) (quote nil) (om-make-point 80 340) (om-make-point 46 32) (list 1 3) "(1 3)" nil) (om-load-boxcomment "comment 4" (om-make-point 217 60) (quote "Subtitui elementos$dada a ordem onde estavam$(elementos a mais são cortados)") "" (om-make-point 78 396) nil (om-make-color 0 0 0) (om-make-font "Bitstream Vera Sans" 12 :family "Bitstream Vera Sans" :style (quote (:plain)) :mode (quote nil))) (om-load-boxcall (quote bastype) "aux 6" (quote t) (quote nil) (om-make-point 4 341) (om-make-point 68 32) (list 0 1 2 3) "(0 1 2 3)" nil) (om-load-boxcomment "comment 3" (om-make-point 236 41) (quote "não é case-sensitive$(não diferencia maiuscula.-minusc.)") "" (om-make-point 159 174) nil (om-make-color 0 0 0) (om-make-font "Bitstream Vera Sans" 12 :family "Bitstream Vera Sans" :style (quote (:plain)) :mode (quote nil))) (om-load-boxcomment "comment 2" (om-make-point 214 42) (quote "Junta listas, atomos, elementos$no mesmo nivel de parenteses$") "" (om-make-point 154 249) nil (om-make-color 0 0 0) (om-make-font "Bitstream Vera Sans" 12 :family "Bitstream Vera Sans" :style (quote (:plain)) :mode (quote nil))) (om-load-boxcall (quote bastype) "aux 5" (quote t) (quote nil) (om-make-point 174 220) (om-make-point 110 32) (list (list 1 1 (list 1)) 2 3 4) "((1 1 ( 1 ))2 3 4)" nil) (om-load-boxcall (quote bastype) "aux 4" (quote t) (quote nil) (om-make-point 92 183) (om-make-point 64 32) (list (quote a) (list (quote b) (quote c))) "(A(B C))" nil) (om-load-boxcall (quote bastype) "aux 3" (quote t) (quote nil) (om-make-point 26 184) (om-make-point 56 32) (list (quote a) (quote b) (quote c)) "(a b c)" nil) (om-load-editor-box1 "TEXT-BOX 2" (quote text-box) (quote ((om-load-inputfun (quote input-funbox) "dialog-item text (string)" "text" "untitled"))) (om-make-point 4 290) (om-make-point 214 50) (om-make-dialog-item (quote text-box) (om-make-point 1 1) (om-make-point 194 23) "(a b c a (b c) (1 1 (1)) 2 3 4)" :font (om-make-font "DejaVu Sans" 11.0D0 :family "DejaVu Sans" :style (quote (:plain)) :mode (quote nil))) nil nil (pairlis (quote (winsize winpos)) (list (om-make-point 335 275) (om-make-point 10 40))) t nil nil nil) (om-load-boxcall (quote bastype) "aux 2" (quote t) (quote nil) (om-make-point 149 28) (om-make-point 84 32) (list (list 0 1) 4 (list 3)) "((0 1) 4 (3))" nil) (om-load-editor-box1 "TEXT-BOX" (quote text-box) (quote ((om-load-inputfun (quote input-funbox) "dialog-item text (string)" "text" "untitled"))) (om-make-point 7 125) (om-make-point 159 50) (om-make-dialog-item (quote text-box) (om-make-point 1 1) (om-make-point 139 23) "((a b) e (d))" :font (om-make-font "DejaVu Sans" 11.0D0 :family "DejaVu Sans" :style (quote (:plain)) :mode (quote nil))) nil nil (pairlis (quote (winsize winpos)) (list (om-make-point 335 275) (om-make-point 10 40))) t nil nil nil) (om-load-boxcall (quote bastype) "aux" (quote t) (quote nil) (om-make-point 98 1) (om-make-point 78 32) (list (quote a) (quote b) (quote c) (quote d) (quote e)) "(a b c d e)" nil) (om-load-boxcomment "comment" (om-make-point 190 61) (quote "Constroi uma lista $a partir de uma lista$de posições") "" (om-make-point 149 65) nil (om-make-color 0 0 0) (om-make-font "Bitstream Vera Sans" 12 :family "Bitstream Vera Sans" :style (quote (:plain)) :mode (quote nil))) (om-load-boxcall (quote genfun) "RANGE-FILTER" (quote range-filter) (quote ((om-load-inputfun (quote input-funbox) "a list" "LIST" (list 1 2 3 4 5)) (om-load-inputfun (quote input-funbox) "position bounds" "POSN" (list (list 0 1) (list 3 4))) (om-load-inputfunmenu1 (quote input-funmenu) "pass or reject" "MODE" (quote reject) (list (list "Reject" (quote (quote reject))) (list "Pass" (quote (quote pass))))))) (om-make-point 383 50) nil nil nil nil 1) (om-load-boxcall (quote genfun) "POSN-MATCH" (quote posn-match) (quote ((om-load-inputfun (quote input-funbox) "a list" "LIST" (list 10 20 30 40 50 60 70 80 90)) (om-load-inputfun (quote input-funbox) "a list positions" "POSITIONS" (list (list 0 1) 4 (list 6))))) (om-make-point 77 60) nil nil nil nil 1) (om-load-boxcall (quote genfun) "BAND-FILTER" (quote band-filter) (quote ((om-load-inputfun (quote input-funbox) "a list" "LIST" (list 1 2 3 4 5)) (om-load-inputfun (quote input-funbox) "a list of (low high) pairs" "BOUNDS" (list (list 0 2) (list 5 10))) (om-load-inputfunmenu1 (quote input-funmenu) "pass or reject" "MODE" (quote pass) (list (list "Reject" (quote (quote reject))) (list "Pass" (quote (quote pass))))))) (om-make-point 792 462) nil nil nil nil 1) (om-load-boxcall (quote genfun) "TABLE-FILTER" (quote table-filter) (quote ((om-load-inputfun (quote input-funbox) "function or function name" "TEST" (quote numberp)) (om-load-inputfun (quote input-funbox) "list of lists" "LIST" (list (list 1 2) (list 1 2))) (om-load-inputfun (quote input-funbox) "rank" "NUMCOL" 1) (om-load-inputfunmenu1 (quote input-funmenu) "pass or reject" "MODE" (quote pass) (list (list "Reject" (quote (quote reject))) (list "Pass" (quote (quote pass))))))) (om-make-point 568 426) nil nil nil nil 1) (om-load-boxcall (quote genfun) "LIST-FILTER" (quote list-filter) (quote ((om-load-inputfun (quote input-funbox) "function or function name" "TEST" (quote numberp)) (om-load-inputfun (quote input-funbox) "a list" "LIST" (list 1 2 3)) (om-load-inputfunmenu1 (quote input-funmenu) "pass or reject" "MODE" (quote pass) (list (list "Reject" (quote (quote reject))) (list "Pass" (quote (quote pass))))))) (om-make-point 1065 489) nil nil nil nil 1) (om-load-boxcall (quote genfun) "LIST-MODULO" (quote list-modulo) (quote ((om-load-inputfun (quote input-funbox) "a list" "LIST" nil) (om-load-inputfun (quote input-funbox) "modulo" "NCOL" 2))) (om-make-point 680 47) nil nil nil nil 1) (om-load-boxcall (quote genfun) "LIST-EXPLODE" (quote list-explode) (quote ((om-load-inputfun (quote input-funbox) "List" "LIST" (list 1 2 3 4 5 6)) (om-load-inputfun (quote input-funbox) "segment size" "NLISTS" 2))) (om-make-point 343 365) nil nil nil nil 1) (om-load-boxcall (quote genfun) "SUBS-POSN" (quote subs-posn) (quote ((om-load-inputfun (quote input-funbox) "a list" "LIS1" (list 0 1 2 3)) (om-load-inputfun (quote input-funbox) "a list of indices" "POSN" (list 1 3)) (om-load-inputfun (quote input-funbox) "a list or value" "VAL" (list (quote a) (quote b))))) (om-make-point 13 391) nil nil nil nil 1) (om-load-boxcall (quote genfun) "INTERLOCK" (quote interlock) (quote ((om-load-inputfun (quote input-funbox) "a list" "LIS1" (list 0 1 2 3)) (om-load-inputfun (quote input-funbox) "a list" "LIS2" (list (quote a) (quote b))) (om-load-inputfun (quote input-funbox) "a list of indexes" "PLC1" (list 1 3)))) (om-make-point 444 207) nil nil nil nil 1) (om-load-boxcall (quote genfun) "REMOVE-DUP" (quote remove-dup) (quote ((om-load-inputfun (quote input-funbox) "list" "LIST" (list 1 2 3 4)) (om-load-inputfun (quote input-funbox) "equality test (function or function name)" "TEST" (quote eq)) (om-load-inputfun (quote input-funbox) "an integer" "DEPTH" 1))) (om-make-point 1012 94) nil nil nil nil 1) (om-load-boxcall (quote genfun) "GROUP-LIST" (quote group-list) (quote ((om-load-inputfun (quote input-funbox) "list to group" "LIST" (list 1 2 3 4)) (om-load-inputfun (quote input-funbox) "list of group lengths" "SEGMENTATION" (list 1 3)) (om-load-inputfunmenu1 (quote input-funmenu) "normal or circular" "MODE" (quote circular) (list (list "linear" (quote (quote linear))) (list "circular" (quote (quote circular))))))) (om-make-point 45 566) nil nil nil nil 1) (om-load-boxcall (quote genfun) "MAT-TRANS 2" (quote mat-trans) (quote ((om-load-inputfun (quote input-funbox) "a list of lists" "MATRIX" (list (list 0 1 0) (list 1 0 1))))) (om-make-point 1147 270) nil nil nil nil 1) (om-load-boxcall (quote genfun) "EXPAND-LST" (quote expand-lst) (quote ((om-load-inputfun (quote input-funbox) "a list to expand" "LIST" (list (quote 3*) (list 2 4) (quote |0_8|))))) (om-make-point 804 275) nil nil nil nil 1) (om-load-boxcall (quote genfun) "CREATE-LIST" (quote create-list) (quote ((om-load-inputfun (quote input-funbox) "number of elements" "COUNT" 10) (om-load-inputfun (quote input-funbox) "initial element" "ELEM" nil))) (om-make-point 586 237) nil nil nil nil 1) (om-load-boxcall (quote genfun) "FLAT" (quote flat) (quote ((om-load-inputfun (quote input-funbox) "a list" "LST" nil) (om-load-inputfun (quote input-funbox) "level of parenthesis" "LEVEL" 1))) (om-make-point 379 543) nil nil nil nil 1) (om-load-boxcall (quote genfun) "X-APPEND" (quote x-append) (quote ((om-load-inputfun (quote input-funbox) "first element" "L1?" nil) (om-load-inputfun (quote input-funbox) "second element" "L2?" nil) (om-load-inputfun (quote input-funbox) "additional elements" "LST?" (list 2 3 4)))) (om-make-point 37 228) nil nil nil nil 1))) (quote ((74 0 1 0 nil 0) (72 0 5 0 nil 0) (73 0 11 0 nil 0) (82 0 16 0 nil 0) (79 0 18 0 nil 0) (83 0 22 0 nil 0) (75 0 27 0 nil 0) (84 0 31 0 nil 0) (76 0 32 0 nil 0) (40 0 39 0 nil 0) (38 0 40 0 nil 0) (78 0 41 0 nil 0) (81 0 42 0 nil 0) (70 0 43 0 nil 0) (80 0 50 0 nil 0) (77 0 55 0 nil 0) (85 0 65 0 nil 0) (71 0 67 0 nil 0) (45 0 70 0 nil 0) (47 0 70 1 ((om-make-point 455 40) (om-make-point 442 38) (om-make-point 419 45) (om-make-point 419 50)) 0) (46 0 70 2 ((om-make-point 495 66) (om-make-point 465 77) (om-make-point 452 59) (om-make-point 446 45) (om-make-point 437 50)) 0) (68 0 71 0 nil 0) (66 0 71 1 nil 0) (8 0 72 0 nil 0) (7 0 72 1 nil 0) (6 0 72 2 nil 0) (12 0 73 0 nil 0) (13 0 73 1 nil 0) (14 0 73 2 ((om-make-point 625 395) (om-make-point 617 408) (om-make-point 607 411) (om-make-point 607 426)) 0) (15 0 73 3 ((om-make-point 671 398) (om-make-point 671 412) (om-make-point 627 415) (om-make-point 620 426)) 0) (4 0 74 0 nil 0) (3 0 74 1 nil 0) (2 0 74 2 nil 0) (25 0 75 0 nil 0) (26 0 75 1 nil 0) (33 0 76 0 nil 0) (34 0 76 1 nil 0) (59 0 77 0 nil 0) (57 0 77 1 nil 0) (56 0 77 2 nil 0) (35 0 78 0 nil 0) (36 0 78 1 nil 0) (37 0 78 2 nil 0) (21 0 79 0 nil 0) (20 0 79 1 nil 0) (19 0 79 2 nil 0) (53 0 80 0 nil 0) (52 0 80 1 nil 0) (51 0 80 2 nil 0) (9 0 81 0 nil 0) (17 0 82 0 nil 0) (23 0 83 0 nil 0) (24 0 83 1 nil 0) (30 0 84 0 nil 0) (29 0 84 1 ((om-make-point 449 578) (om-make-point 443 592) (om-make-point 417 572) (om-make-point 397 538) (om-make-point 397 543)) 0) (64 0 85 0 nil 0) (63 0 85 1 nil 0) (62 0 85 2 ((om-make-point 227 250) (om-make-point 143 250) (om-make-point 127 236) (om-make-point 100 229) (om-make-point 82 228)) 0))) nil 6.070004))
