; OM File Header - Saved 2013/11/08 20:31:01
; (6.070004 :patc (om-make-point 10 60) (om-make-point 0 0) (om-make-point 1018 566) "" 183 0 "2013/10/29 15:56:55" "2013/11/08 19:49:59")
; End File Header
(in-package :om)(load-lib-for (quote nil))(setf *om-current-persistent* (om-load-patch1 "RelativizarDeriva" (quote ((om-load-boxcall (quote lispfun) "PRINT 2" (quote print) (quote ((om-load-inputfun (quote input-funbox) "SOMETHING" "SOMETHING" nil))) (om-make-point 532 963) nil nil nil nil 1) (om-load-boxcomment "comment" (om-make-point 113 63) (quote "lista de posicoes$$dos acordes") "" (om-make-point 503 1007) nil (om-make-color 0 0 0) (om-make-font "Bitstream Vera Sans" 12 :family "Bitstream Vera Sans" :style (quote (:plain)) :mode (quote nil))) (om-load-boxcall (quote genfun) "REMOVE-DUP" (quote remove-dup) (quote ((om-load-inputfun (quote input-funbox) "list" "LIST" (list 1 2 3 4)) (om-load-inputfun (quote input-funbox) "equality test (function or function name)" "TEST" (quote eq)) (om-load-inputfun (quote input-funbox) "an integer" "DEPTH" 1))) (om-make-point 637 979) nil nil nil nil 1) (om-load-boxcall (quote genfun) "OM-RANDOM 4" (quote om-random) (quote ((om-load-inputfun (quote input-funbox) "min" "LOW" 1) (om-load-inputfun (quote input-funbox) "max" "HIGH" 6))) (om-make-point 662 845) nil nil nil nil 1) (om-load-boxcall (quote genfun) "REPEAT-N 3" (quote repeat-n) (quote ((om-load-inputfun (quote input-funbox) "something" "SELF" nil) (om-load-inputfun (quote input-funbox) "times" "N" 0))) (om-make-point 630 910) nil nil nil nil 1) (om-load-boxcall (quote genfun) "OM-RANDOM 3" (quote om-random) (quote ((om-load-inputfun (quote input-funbox) "min" "LOW" 1) (om-load-inputfun (quote input-funbox) "max" "HIGH" 6))) (om-make-point 561 851) nil nil nil nil 1) (om-load-boxcall (quote lispfun) "LIST 2" (quote list) (quote nil) (om-make-point 579 743) nil nil nil nil 1) (om-load-boxcall (quote abstraction) "permuta-ritmos" (om-load-patch-abs1 "permuta-ritmos" (quote ((om-load-boxout "output" 0 (om-make-point 83 262) (quote ((om-load-inputfun (quote input-funbox) "" "out" nil))) nil nil) (om-load-boxcall (quote lispfun) "FIRST" (quote first) (quote ((om-load-inputfun (quote input-funbox) "LIST" "LIST" nil))) (om-make-point 95 211) nil nil nil nil 1) (om-load-boxcall (quote bastype) "list" (quote list) (quote nil) (om-make-point 5 75) (om-make-point 231 32) (list (list 0 333 444) (list 0 111 444) (list 0 444 555)) "((0 333 444) (0 111 444) (0 444 555))" nil) (om-load-boxcall (quote genfun) "PERMUT-RANDOM" (quote permut-random) (quote ((om-load-inputfun (quote input-funbox) "a list" "LIST" (list (list 0 333 444) (list 0 111 444) (list 0 444 555))))) (om-make-point 43 112) nil nil nil nil 1))) (quote ((1 0 0 0 nil 0) (3 0 1 0 nil 0) (2 0 3 0 nil 0))) 6.070004 nil "" (om-make-point 0 0) (om-make-point 255 402)) (quote nil) (om-make-point 685 354) nil (list (list 0 333 444)) nil "permuta-ritmos") (om-load-editor-box1 "CHORD-SEQ 14" (quote chord-seq) (quote ((om-load-inputfun (quote input-funbox) "object" "self" nil) (om-load-inputfun (quote input-funbox) "pitches (mc): list or list of lists" "lmidic" (list 6000)) (om-load-inputfun (quote input-funbox) "onsets (ms): list" "lonset" (list 0 111)) (om-load-inputfun (quote input-funbox) "durations (ms): list or list of lists" "ldur" (list 1000)) (om-load-inputfun (quote input-funbox) "velocities (0-127): list or list of lists" "lvel" (list 100)) (om-load-inputfun (quote input-funbox) "offsets (ms): list or list of lists" "loffset" (list 0)) (om-load-inputfun (quote input-funbox) "MIDI channels (1-16): list or list of lists" "lchan" (list 1)) (om-load-inputfun (quote input-funbox) "relative chords duration (0-100)" "legato" 0))) (om-make-point 964 776) (om-make-point 115 113) (let ((newobj (when (find-class (quote chord-seq) nil) (make-instance (quote chord-seq) :lmidic (quote ((9300) (7100 7000 7700) (9300 9800) (9600) (7400) (9600 7200 8200) (9000 8900) (10300) (9400) (7900 6900 6700) (8200 8700) (11000))) :lonset (quote (0 111 222 333 444 555 666 777 888 999 1110 1221 2221)) :ldur (quote ((1000) (1000 1000 1000) (1000 1000) (1000) (1000) (1000 1000 1000) (1000 1000) (1000) (1000) (1000 1000 1000) (1000 1000) (1000))) :lvel (quote ((100) (100 100 100) (100 100) (100) (100) (100 100 100) (100 100) (100) (100) (100 100 100) (100 100) (100))) :loffset (quote ((0) (0 0 0) (0 0) (0) (0) (0 0 0) (0 0) (0) (0) (0 0 0) (0 0) (0))) :lchan (quote ((1) (1 1 1) (1 1) (1) (1) (1 1 1) (1 1) (1) (1) (1 1 1) (1 1) (1))) :legato 0)))) (load-port-info newobj (quote ((0) (0 0 0) (0 0) (0) (0) (0 0 0) (0 0) (0) (0) (0 0 0) (0 0) (0)))) (init-mus-color newobj (quote nil)) (set-extra-pairs newobj (quote nil)) (set-patch-pairs newobj (quote ((nil (om-load-patch-abs1 "patch" (quote nil) (quote nil) 6.070004 nil "" (om-make-point 200 200) (om-make-point 400 500)))))) (set-name newobj nil) (set-tonalite newobj nil) newobj) "x" nil (pairlis (quote (scale show-stems cursor-mode obj-mode score-mode winpos winsize mode grillestep notechancolor? zoom player inport outport deltapict cmnpref staff fontsize approx)) (list nil (quote t) (quote :normal) 1 0 (om-make-point 0 0) (om-make-point 504 281) 0 1000 nil 1 (quote :jackmidi) 0 nil (om-make-point 0 0) (let ((newobj (make-instance (quote edition-values)))) (setf (paper-size newobj) (om-make-point 600 800)) (setf (top-margin newobj) 2) (setf (left-margin newobj) 1) (setf (right-margin newobj) 1) (setf (bottom-margin newobj) 1) (setf (orientation newobj) nil) (setf (scale newobj) nil) (setf (system-space newobj) (quote (1))) (setf (system-color newobj) (quote nil)) (setf (line-space newobj) 1) (setf (title newobj) nil) (setf (show-title? newobj) nil) (setf (show-page? newobj) nil) (setf (sheet-id newobj) nil) (setf (page-mode newobj) nil) newobj) (quote gg) 24 2)) t nil nil nil) (om-load-boxcomment "comment" (om-make-point 127 117) (quote "inserindo acorde permutado na posição de uma das notas") "" (om-make-point 528 797) nil (om-make-color 0 0 0) (om-make-font "Bitstream Vera Sans" 12 :family "Bitstream Vera Sans" :style (quote (:plain)) :mode (quote nil))) (om-load-boxcomment "comment 7" (om-make-point 143 44) (quote "retrogrado dos$intervalos invertidos") "" (om-make-point 205 1088) nil (om-make-color 0 0 0) (om-make-font "Bitstream Vera Sans" 12 :family "Bitstream Vera Sans" :style (quote (:plain)) :mode (quote nil))) (om-load-boxcomment "comment" (om-make-point 127 27) (quote "intervalos invertidos") "" (om-make-point 120 886) nil (om-make-color 0 0 0) (om-make-font "Bitstream Vera Sans" 12 :family "Bitstream Vera Sans" :style (quote (:plain)) :mode (quote nil))) (om-load-boxcall (quote lispfun) "REVERSE 2" (quote reverse) (quote ((om-load-inputfun (quote input-funbox) "SEQUENCE" "SEQUENCE" nil))) (om-make-point 32 1049) nil nil nil nil 1) (om-load-boxcall (quote abstraction) "ritmo retrogrado" (om-load-patch-abs1 "ritmo retrogrado" (quote ((om-load-boxout "output" 0 (om-make-point 259 249) (quote ((om-load-inputfun (quote input-funbox) "" "out" nil))) nil nil) (om-load-boxin "input" 0 (om-make-point 49 64) "" nil nil nil) (om-load-boxcall (quote genfun) "DX->X" (quote dx->x) (quote ((om-load-inputfun (quote input-funbox) "a number" "START" 0) (om-load-inputfun (quote input-funbox) "a list of numbers" "LIST" (list 1 1)))) (om-make-point 264 183) nil nil nil nil 1) (om-load-boxcall (quote lispfun) "REVERSE" (quote reverse) (quote ((om-load-inputfun (quote input-funbox) "SEQUENCE" "SEQUENCE" nil))) (om-make-point 194 184) nil nil nil nil 1) (om-load-boxcall (quote genfun) "X->DX" (quote x->dx) (quote ((om-load-inputfun (quote input-funbox) "a list of numbers" "SELF" 0))) (om-make-point 122 199) nil nil nil nil 1) (om-load-boxcall (quote lispfun) "BUTLAST" (quote butlast) (quote ((om-load-inputfun (quote input-funbox) "LIST" "LIST" nil))) (om-make-point 57 149) (om-make-point 46 44) nil nil nil 1) (om-load-boxcomment "comment" (om-make-point 360 50) (quote "<= porque sobra um onset a mais? - é preciso retirá-lo com um \"butlast\"!") "" (om-make-point 106 138) nil (om-make-color 0 0 0) (om-make-font "Verdana" 12 :family "Verdana" :style (quote (:plain)) :mode (quote nil))))) (quote ((2 0 0 0 nil 0) (3 0 2 1 nil 2) (4 0 3 0 nil 2) (5 0 4 0 nil 2) (1 0 5 0 nil 0))) 6.070004 nil "" (om-make-point 0 0) (om-make-point 939 496)) (quote ((om-load-inputfun (quote input-funbox) "" "input" nil))) (om-make-point 99 1043) nil (list (list 0 1000 2000 2305 2750 3236 3722 4069)) nil "ritmo retrogrado") (om-load-editor-box1 "CHORD-SEQ 15" (quote chord-seq) (quote ((om-load-inputfun (quote input-funbox) "object" "self" nil) (om-load-inputfun (quote input-funbox) "pitches (mc): list or list of lists" "lmidic" (list 6000)) (om-load-inputfun (quote input-funbox) "onsets (ms): list" "lonset" (list 0 1000)) (om-load-inputfun (quote input-funbox) "durations (ms): list or list of lists" "ldur" (list 1000)) (om-load-inputfun (quote input-funbox) "velocities (0-127): list or list of lists" "lvel" (list 100)) (om-load-inputfun (quote input-funbox) "offsets (ms): list or list of lists" "loffset" (list 0)) (om-load-inputfun (quote input-funbox) "MIDI channels (1-16): list or list of lists" "lchan" (list 1)) (om-load-inputfun (quote input-funbox) "relative chords duration (0-100)" "legato" 0))) (om-make-point 41 1128) (om-make-point 231 110) (let ((newobj (when (find-class (quote chord-seq) nil) (make-instance (quote chord-seq) :lmidic (quote ((4400) (5100) (6600) (6000) (6600) (5800) (5700) (5100))) :lonset (quote (0 1000 2000 2305 2750 3236 3722 4069 5069)) :ldur (quote ((1000) (1000) (1000) (1000) (1000) (1000) (1000) (1000))) :lvel (quote ((100) (100) (100) (100) (100) (100) (100) (100))) :loffset (quote ((0) (0) (0) (0) (0) (0) (0) (0))) :lchan (quote ((1) (1) (1) (1) (1) (1) (1) (1))) :legato 0)))) (load-port-info newobj (quote ((0) (0) (0) (0) (0) (0) (0) (0)))) (init-mus-color newobj (quote nil)) (set-extra-pairs newobj (quote nil)) (set-patch-pairs newobj (quote nil)) (set-name newobj nil) (set-tonalite newobj nil) newobj) nil nil (pairlis (quote (scale show-stems cursor-mode obj-mode score-mode winpos winsize mode grillestep notechancolor? zoom player inport outport deltapict cmnpref staff fontsize approx)) (list nil (quote t) (quote :normal) 1 0 (om-make-point 0 0) (om-make-point 646 335) 0 1000 nil 1 (quote :jackmidi) 0 nil (om-make-point 0 0) (let ((newobj (make-instance (quote edition-values)))) (setf (paper-size newobj) (om-make-point 600 800)) (setf (top-margin newobj) 2) (setf (left-margin newobj) 1) (setf (right-margin newobj) 1) (setf (bottom-margin newobj) 1) (setf (orientation newobj) nil) (setf (scale newobj) nil) (setf (system-space newobj) (quote (1))) (setf (system-color newobj) (quote nil)) (setf (line-space newobj) 1) (setf (title newobj) nil) (setf (show-title? newobj) nil) (setf (show-page? newobj) nil) (setf (sheet-id newobj) nil) (setf (page-mode newobj) nil) newobj) (quote gf) 24 2)) t nil nil nil) (om-load-editor-box1 "CHORD-SEQ 13" (quote chord-seq) (quote ((om-load-inputfun (quote input-funbox) "object" "self" nil) (om-load-inputfun (quote input-funbox) "pitches (mc): list or list of lists" "lmidic" (list 6000)) (om-load-inputfun (quote input-funbox) "onsets (ms): list" "lonset" (list 0 1000)) (om-load-inputfun (quote input-funbox) "durations (ms): list or list of lists" "ldur" (list 1000)) (om-load-inputfun (quote input-funbox) "velocities (0-127): list or list of lists" "lvel" (list 100)) (om-load-inputfun (quote input-funbox) "offsets (ms): list or list of lists" "loffset" (list 0)) (om-load-inputfun (quote input-funbox) "MIDI channels (1-16): list or list of lists" "lchan" (list 1)) (om-load-inputfun (quote input-funbox) "relative chords duration (0-100)" "legato" 0))) (om-make-point 300 789) (om-make-point 223 136) (let ((newobj (when (find-class (quote chord-seq) nil) (make-instance (quote chord-seq) :lmidic (quote ((7500) (8400 8700 7200) (8000) (7200) (7800) (7200 8700 9400))) :lonset (quote (0 347 833 1319 1764 2069 3069)) :ldur (quote ((1000) (1000 1000 1000) (1000) (1000) (1000) (1000 1000 1000))) :lvel (quote ((100) (100 100 100) (100) (100) (100) (100 100 100))) :loffset (quote ((0) (0 0 0) (0) (0) (0) (0 0 0))) :lchan (quote ((1) (1 1 1) (1) (1) (1) (1 1 1))) :legato 0)))) (load-port-info newobj (quote ((0) (0 0 0) (0) (0) (0) (0 0 0)))) (init-mus-color newobj (quote nil)) (set-extra-pairs newobj (quote nil)) (set-patch-pairs newobj (quote nil)) (set-name newobj nil) (set-tonalite newobj nil) newobj) "x" nil (pairlis (quote (scale show-stems cursor-mode obj-mode score-mode winpos winsize mode grillestep notechancolor? zoom player inport outport deltapict cmnpref staff fontsize approx)) (list nil (quote t) (quote :normal) 1 0 (om-make-point 0 0) (om-make-point 673 429) 0 1000 nil 1 (quote :jackmidi) 0 nil (om-make-point 0 0) (let ((newobj (make-instance (quote edition-values)))) (setf (paper-size newobj) (om-make-point 600 800)) (setf (top-margin newobj) 2) (setf (left-margin newobj) 1) (setf (right-margin newobj) 1) (setf (bottom-margin newobj) 1) (setf (orientation newobj) nil) (setf (scale newobj) nil) (setf (system-space newobj) (quote (1))) (setf (system-color newobj) (quote nil)) (setf (line-space newobj) 1) (setf (title newobj) nil) (setf (show-title? newobj) nil) (setf (show-page? newobj) nil) (setf (sheet-id newobj) nil) (setf (page-mode newobj) nil) newobj) (quote gg) 24 2)) t nil nil nil) (om-load-boxcall (quote genfun) "LIST-MODULO" (quote list-modulo) (quote ((om-load-inputfun (quote input-funbox) "a list" "LIST" nil) (om-load-inputfun (quote input-funbox) "modulo" "NCOL" 4))) (om-make-point 458 665) nil (list (list (list 8400 8700 7200) (list 7400 7500) (list 7900 9600) (list 8200 7600))) "x" nil 1) (om-load-boxcall (quote genfun) "PERMUT-RANDOM 4" (quote permut-random) (quote ((om-load-inputfun (quote input-funbox) "a list" "LIST" nil))) (om-make-point 402 723) nil nil nil nil 1) (om-load-boxcall (quote genfun) "FLAT 4" (quote flat) (quote ((om-load-inputfun (quote input-funbox) "a list" "LST" nil))) (om-make-point 299 587) nil nil nil nil 1) (om-load-boxcall (quote genfun) "GROUP-LIST 3" (quote group-list) (quote ((om-load-inputfun (quote input-funbox) "list to group" "LIST" (list 1 2 3 4)) (om-load-inputfun (quote input-funbox) "list of group lengths" "SEGMENTATION" 3) (om-load-inputfunmenu1 (quote input-funmenu) "normal or circular" "MODE" (quote linear) (list (list "linear" (quote (quote linear))) (list "circular" (quote (quote circular))))))) (om-make-point 178 727) nil nil nil nil 1) (om-load-boxcall (quote lispfun) "APPEND" (quote append) (quote ((om-load-inputfun (quote input-funbox) "add-input" "add-input" nil) (om-load-inputfun (quote input-funbox) "add-input" "add-input" nil))) (om-make-point 63 788) nil nil nil nil 1) (om-load-boxcall (quote genfun) "SUBS-POSN" (quote subs-posn) (quote ((om-load-inputfun (quote input-funbox) "a list" "LIS1" (list 0 1 2 3)) (om-load-inputfun (quote input-funbox) "a list of indices" "POSN" (list 4 7)) (om-load-inputfun (quote input-funbox) "a list or value" "VAL" (list (quote a) (quote b))))) (om-make-point 294 705) nil nil nil nil 1) (om-load-boxcall (quote abstraction) "inverso 3" (om-load-patch-abs1 "inverso" (quote ((om-load-boxcall (quote genfun) "DX->X" (quote dx->x) (quote ((om-load-inputfun (quote input-funbox) "a number" "START" 0) (om-load-inputfun (quote input-funbox) "a list of numbers" "LIST" (list 1 1)))) (om-make-point 130 184) nil nil nil nil 1) (om-load-boxcall (quote genfun) "FLAT" (quote flat) (quote ((om-load-inputfun (quote input-funbox) "a list" "LST" nil))) (om-make-point 89 54) nil nil nil nil 1) (om-load-boxcall (quote genfun) "OM*" (quote om*) (quote ((om-load-inputfun (quote input-funbox) "number or list" "ARG1" 0) (om-load-inputfun (quote input-funbox) "number or list" "ARG2" -1))) (om-make-point 188 146) nil nil nil nil 1) (om-load-boxcall (quote genfun) "X->DX" (quote x->dx) (quote ((om-load-inputfun (quote input-funbox) "a list of numbers" "SELF" 0))) (om-make-point 176 82) nil nil nil nil 1) (om-load-boxcall (quote lispfun) "FIRST" (quote first) (quote ((om-load-inputfun (quote input-funbox) "LIST" "LIST" nil))) (om-make-point 98 132) nil nil nil nil 1) (om-load-boxout "output" 0 (om-make-point 121 279) (quote ((om-load-inputfun (quote input-funbox) "" "out" nil))) nil nil) (om-load-boxin "input" 0 (om-make-point 86 0) "" nil nil nil))) (quote ((4 0 0 0 nil 0) (2 0 0 1 nil 0) (6 0 1 0 nil 0) (3 0 2 0 nil 0) (1 0 3 0 nil 0) (1 0 4 0 nil 0) (0 0 5 0 nil 0))) 6.070004 nil "" (om-make-point 200 200) (om-make-point 500 400)) (quote ((om-load-inputfun (quote input-funbox) "" "input" nil))) (om-make-point 215 653) nil (list (list 5100)) nil "inverso") (om-load-boxcall (quote lispfun) "FIRST 2" (quote first) (quote ((om-load-inputfun (quote input-funbox) "LIST" "LIST" nil))) (om-make-point 167 640) nil nil nil nil 1) (om-load-boxcall (quote genfun) "PERMUT-RANDOM 3" (quote permut-random) (quote ((om-load-inputfun (quote input-funbox) "a list" "LIST" (list -1200 -700 700 1200)))) (om-make-point 1010 301) nil nil nil nil 1) (om-load-boxcall (quote abstraction) "butfirst" (om-load-patch-abs1 "butfirst" (quote ((om-load-boxcall (quote lispfun) "REVERSE 2" (quote reverse) (quote ((om-load-inputfun (quote input-funbox) "SEQUENCE" "SEQUENCE" nil))) (om-make-point 117 259) nil nil nil nil 1) (om-load-boxcall (quote lispfun) "BUTLAST" (quote butlast) (quote ((om-load-inputfun (quote input-funbox) "LIST" "LIST" nil))) (om-make-point 121 197) nil nil nil nil 1) (om-load-boxcall (quote lispfun) "REVERSE" (quote reverse) (quote ((om-load-inputfun (quote input-funbox) "SEQUENCE" "SEQUENCE" nil))) (om-make-point 117 117) nil nil nil nil 1) (om-load-boxout "output" 0 (om-make-point 126 341) (quote ((om-load-inputfun (quote input-funbox) "" "out" nil))) nil nil) (om-load-boxin "input" 0 (om-make-point 125 33) "" nil nil nil))) (quote ((1 0 0 0 nil 0) (2 0 1 0 nil 0) (4 0 2 0 nil 0) (0 0 3 0 nil 0))) 6.070004 nil "" (om-make-point 0 0) (om-make-point 400 477)) (quote ((om-load-inputfun (quote input-funbox) "" "input" nil))) (om-make-point 0 608) nil (list (list (list 5700) (list 5600) (list 4800) (list 5400) (list 4800 6300 7000))) nil "butfirst") (om-load-boxcall (quote abstraction) "inverso 2" (om-load-patch-abs1 "inverso" (quote ((om-load-boxcall (quote genfun) "DX->X" (quote dx->x) (quote ((om-load-inputfun (quote input-funbox) "a number" "START" 0) (om-load-inputfun (quote input-funbox) "a list of numbers" "LIST" (list 1 1)))) (om-make-point 130 184) nil nil nil nil 1) (om-load-boxcall (quote genfun) "FLAT" (quote flat) (quote ((om-load-inputfun (quote input-funbox) "a list" "LST" nil))) (om-make-point 89 54) nil nil nil nil 1) (om-load-boxcall (quote genfun) "OM*" (quote om*) (quote ((om-load-inputfun (quote input-funbox) "number or list" "ARG1" 0) (om-load-inputfun (quote input-funbox) "number or list" "ARG2" -1))) (om-make-point 188 146) nil nil nil nil 1) (om-load-boxcall (quote genfun) "X->DX" (quote x->dx) (quote ((om-load-inputfun (quote input-funbox) "a list of numbers" "SELF" 0))) (om-make-point 176 82) nil nil nil nil 1) (om-load-boxcall (quote lispfun) "FIRST" (quote first) (quote ((om-load-inputfun (quote input-funbox) "LIST" "LIST" nil))) (om-make-point 98 132) nil nil nil nil 1) (om-load-boxout "output" 0 (om-make-point 121 279) (quote ((om-load-inputfun (quote input-funbox) "" "out" nil))) nil nil) (om-load-boxin "input" 0 (om-make-point 86 0) "" nil nil nil))) (quote ((4 0 0 0 nil 0) (2 0 0 1 nil 0) (6 0 1 0 nil 0) (3 0 2 0 nil 0) (1 0 3 0 nil 0) (1 0 4 0 nil 0) (0 0 5 0 nil 0))) 6.070004 nil "" (om-make-point 0 0) (om-make-point 500 377)) (quote ((om-load-inputfun (quote input-funbox) "" "input" nil))) (om-make-point 74 642) nil (list (list 5700 5800 6600 6000 6600 5100 4400)) nil "inverso") (om-load-editor-box1 "CHORD-SEQ 12" (quote chord-seq) (quote ((om-load-inputfun (quote input-funbox) "object" "self" nil) (om-load-inputfun (quote input-funbox) "pitches (mc): list or list of lists" "lmidic" (list 6000)) (om-load-inputfun (quote input-funbox) "onsets (ms): list" "lonset" (list 0 1000)) (om-load-inputfun (quote input-funbox) "durations (ms): list or list of lists" "ldur" (list 1000)) (om-load-inputfun (quote input-funbox) "velocities (0-127): list or list of lists" "lvel" (list 100)) (om-load-inputfun (quote input-funbox) "offsets (ms): list or list of lists" "loffset" (list 0)) (om-load-inputfun (quote input-funbox) "MIDI channels (1-16): list or list of lists" "lchan" (list 1)) (om-load-inputfun (quote input-funbox) "relative chords duration (0-100)" "legato" 0))) (om-make-point 45 912) (om-make-point 203 101) (let ((newobj (when (find-class (quote chord-seq) nil) (make-instance (quote chord-seq) :lmidic (quote ((5100) (5700) (5800) (6600) (6000) (6600) (5100) (4400))) :lonset (quote (0 347 833 1319 1764 2069 3069 4069 5069)) :ldur (quote ((1000) (1000) (1000) (1000) (1000) (1000) (1000) (1000))) :lvel (quote ((100) (100) (100) (100) (100) (100) (100) (100))) :loffset (quote ((0) (0) (0) (0) (0) (0) (0) (0))) :lchan (quote ((1) (1) (1) (1) (1) (1) (1) (1))) :legato 0)))) (load-port-info newobj (quote ((0) (0) (0) (0) (0) (0) (0) (0)))) (init-mus-color newobj (quote nil)) (set-extra-pairs newobj (quote nil)) (set-patch-pairs newobj (quote nil)) (set-name newobj nil) (set-tonalite newobj nil) newobj) nil nil (pairlis (quote (scale show-stems cursor-mode obj-mode score-mode winpos winsize mode grillestep notechancolor? zoom player inport outport deltapict cmnpref staff fontsize approx)) (list nil (quote t) (quote :normal) 1 0 (om-make-point 0 0) (om-make-point 646 335) 0 1000 nil 1 (quote :jackmidi) 0 nil (om-make-point 0 0) (let ((newobj (make-instance (quote edition-values)))) (setf (paper-size newobj) (om-make-point 600 800)) (setf (top-margin newobj) 2) (setf (left-margin newobj) 1) (setf (right-margin newobj) 1) (setf (bottom-margin newobj) 1) (setf (orientation newobj) nil) (setf (scale newobj) nil) (setf (system-space newobj) (quote (1))) (setf (system-color newobj) (quote nil)) (setf (line-space newobj) 1) (setf (title newobj) nil) (setf (show-title? newobj) nil) (setf (show-page? newobj) nil) (setf (sheet-id newobj) nil) (setf (page-mode newobj) nil) newobj) (quote gf) 24 2)) t nil nil nil) (om-load-editor-box1 "CHORD-SEQ 9" (quote chord-seq) (quote ((om-load-inputfun (quote input-funbox) "object" "self" nil) (om-load-inputfun (quote input-funbox) "pitches (mc): list or list of lists" "lmidic" (list 6000)) (om-load-inputfun (quote input-funbox) "onsets (ms): list" "lonset" (list 0 111)) (om-load-inputfun (quote input-funbox) "durations (ms): list or list of lists" "ldur" (list 1000)) (om-load-inputfun (quote input-funbox) "velocities (0-127): list or list of lists" "lvel" (list 100)) (om-load-inputfun (quote input-funbox) "offsets (ms): list or list of lists" "loffset" (list 0)) (om-load-inputfun (quote input-funbox) "MIDI channels (1-16): list or list of lists" "lchan" (list 1)) (om-load-inputfun (quote input-funbox) "relative chords duration (0-100)" "legato" 0))) (om-make-point 823 467) (om-make-point 140 127) (let ((newobj (when (find-class (quote chord-seq) nil) (make-instance (quote chord-seq) :lmidic (quote ((10100) (7200 7400 8400) (9100 7000) (10100) (7400) (9400 11500 9500) (9600 10100) (7400) (9300) (8400 7600 7200) (7000 7700) (9300))) :lonset (quote (0 111 222 333 444 555 666 777 888 999 1110 1221 2221)) :ldur (quote ((1000) (1000 1000 1000) (1000 1000) (1000) (1000) (1000 1000 1000) (1000 1000) (1000) (1000) (1000 1000 1000) (1000 1000) (1000))) :lvel (quote ((100) (100 100 100) (100 100) (100) (100) (100 100 100) (100 100) (100) (100) (100 100 100) (100 100) (100))) :loffset (quote ((0) (0 0 0) (0 0) (0) (0) (0 0 0) (0 0) (0) (0) (0 0 0) (0 0) (0))) :lchan (quote ((1) (1 1 1) (1 1) (1) (1) (1 1 1) (1 1) (1) (1) (1 1 1) (1 1) (1))) :legato 0)))) (load-port-info newobj (quote ((0) (0 0 0) (0 0) (0) (0) (0 0 0) (0 0) (0) (0) (0 0 0) (0 0) (0)))) (init-mus-color newobj (quote nil)) (set-extra-pairs newobj (quote nil)) (set-patch-pairs newobj (quote nil)) (set-name newobj nil) (set-tonalite newobj nil) newobj) nil nil (pairlis (quote (scale show-stems cursor-mode obj-mode score-mode winpos winsize mode grillestep notechancolor? zoom player inport outport deltapict cmnpref staff fontsize approx)) (list nil (quote t) (quote :normal) 1 0 (om-make-point 0 0) (om-make-point 504 281) 0 1000 nil 1 (quote :jackmidi) 0 nil (om-make-point 0 0) (let ((newobj (make-instance (quote edition-values)))) (setf (paper-size newobj) (om-make-point 600 800)) (setf (top-margin newobj) 2) (setf (left-margin newobj) 1) (setf (right-margin newobj) 1) (setf (bottom-margin newobj) 1) (setf (orientation newobj) nil) (setf (scale newobj) nil) (setf (system-space newobj) (quote (1))) (setf (system-color newobj) (quote nil)) (setf (line-space newobj) 1) (setf (title newobj) nil) (setf (show-title? newobj) nil) (setf (show-page? newobj) nil) (setf (sheet-id newobj) nil) (setf (page-mode newobj) nil) newobj) (quote gg) 24 2)) t nil nil nil) (om-load-editor-box1 "CHORD-SEQ 11" (quote chord-seq) (quote ((om-load-inputfun (quote input-funbox) "object" "self" nil) (om-load-inputfun (quote input-funbox) "pitches (mc): list or list of lists" "lmidic" (list 6000)) (om-load-inputfun (quote input-funbox) "onsets (ms): list" "lonset" (list 0 1000)) (om-load-inputfun (quote input-funbox) "durations (ms): list or list of lists" "ldur" (list 1000)) (om-load-inputfun (quote input-funbox) "velocities (0-127): list or list of lists" "lvel" (list 100)) (om-load-inputfun (quote input-funbox) "offsets (ms): list or list of lists" "loffset" (list 0)) (om-load-inputfun (quote input-funbox) "MIDI channels (1-16): list or list of lists" "lchan" (list 1)) (om-load-inputfun (quote input-funbox) "relative chords duration (0-100)" "legato" 0))) (om-make-point 965 630) (om-make-point 113 140) (let ((newobj (when (find-class (quote chord-seq) nil) (make-instance (quote chord-seq) :lmidic (quote ((9500 8400) (9200 10100) (7500) (10300) (10300 10400 10100) (10600 9800) (8000) (7600) (8800 7900 7800) (10000 9100) (8300))) :lonset (quote (111 222 333 444 555 666 777 888 999 1110 1221 2333)) :ldur (quote ((1000 1000) (1000 1000) (2000) (1000) (1000 1000 1000) (1000 1000) (1000) (1000) (1000 1000 1000) (1000 1000) (1000))) :lvel (quote ((100 100) (100 100) (100) (100) (100 100 100) (100 100) (100) (100) (100 100 100) (100 100) (100))) :loffset (quote ((0 0) (0 0) (0) (0) (0 0 0) (0 0) (0) (0) (0 0 0) (0 0) (0))) :lchan (quote ((1 1) (1 1) (1) (1) (1 1 1) (1 1) (1) (1) (1 1 1) (1 1) (1))) :legato 0)))) (load-port-info newobj (quote ((0 0) (0 0) (0) (0) (0 0 0) (0 0) (0) (0) (0 0 0) (0 0) (0)))) (init-mus-color newobj (quote nil)) (set-extra-pairs newobj (quote nil)) (set-patch-pairs newobj (quote ((nil (om-load-patch-abs1 "patch" (quote nil) (quote nil) 6.070004 nil "" (om-make-point 200 200) (om-make-point 400 500)))))) (set-name newobj nil) (set-tonalite newobj nil) newobj) "x" nil (pairlis (quote (scale show-stems cursor-mode obj-mode score-mode winpos winsize mode grillestep notechancolor? zoom player inport outport deltapict cmnpref staff fontsize approx)) (list nil (quote t) (quote :normal) 0 0 (om-make-point 0 0) (om-make-point 869 296) 0 1000 nil 1 (quote :jackmidi) 0 nil (om-make-point 0 0) (let ((newobj (make-instance (quote edition-values)))) (setf (paper-size newobj) (om-make-point 600 800)) (setf (top-margin newobj) 2) (setf (left-margin newobj) 1) (setf (right-margin newobj) 1) (setf (bottom-margin newobj) 1) (setf (orientation newobj) nil) (setf (scale newobj) nil) (setf (system-space newobj) (quote (1))) (setf (system-color newobj) (quote nil)) (setf (line-space newobj) 1) (setf (title newobj) nil) (setf (show-title? newobj) nil) (setf (show-page? newobj) nil) (setf (sheet-id newobj) nil) (setf (page-mode newobj) nil) newobj) (quote gg) 24 2)) t nil nil nil) (om-load-editor-box1 "CHORD 3" (quote chord) (quote ((om-load-inputfun (quote input-funbox) "object" "self" nil) (om-load-inputfun (quote input-funbox) "pitches (list of midicents)" "lmidic" (list 6000)) (om-load-inputfun (quote input-funbox) "velocities (list of values 0-127)" "lvel" (list 100)) (om-load-inputfun (quote input-funbox) "offsets (list of values in ms)" "loffset" (list 0)) (om-load-inputfun (quote input-funbox) "durations (list of values in ms)" "ldur" (list 1000)) (om-load-inputfun (quote input-funbox) "MIDI channels (list of values 0-16)" "lchan" (list 1)))) (om-make-point 1008 0) (om-make-point 90 98) (let ((thechord (make-instance (quote chord) :lmidic (quote (7900 7700 7600 7500 6900 6400 6700 5500 7200)) :ldur (quote (1000 1000 1000 1000 1000 1000 1000 1000 1000)) :lvel (quote (100 100 100 100 100 100 100 100 100)) :loffset (quote (0 0 0 0 0 0 0 0 0)) :lchan (quote (1 1 1 1 1 1 1 1 1))))) (load-port-info thechord (quote (0 0 0 0 0 0 0 0 0))) (init-mus-color thechord (quote nil)) (set-extra-pairs thechord (quote nil)) (set-tonalite thechord nil) thechord) "x" nil (pairlis (quote (scale show-stems cursor-mode obj-mode score-mode winpos winsize mode grillestep notechancolor? zoom player inport outport deltapict cmnpref staff fontsize approx)) (list nil (quote t) (quote :normal) 0 0 (om-make-point 0 0) (om-make-point 872 447) 0 1000 nil 1 (quote :jackmidi) 0 nil (om-make-point 0 0) (let ((newobj (make-instance (quote edition-values)))) (setf (paper-size newobj) (om-make-point 600 800)) (setf (top-margin newobj) 2) (setf (left-margin newobj) 1) (setf (right-margin newobj) 1) (setf (bottom-margin newobj) 1) (setf (orientation newobj) nil) (setf (scale newobj) nil) (setf (system-space newobj) (quote (1))) (setf (system-color newobj) (quote nil)) (setf (line-space newobj) 1) (setf (title newobj) nil) (setf (show-title? newobj) nil) (setf (show-page? newobj) nil) (setf (sheet-id newobj) nil) (setf (page-mode newobj) nil) newobj) (quote g) 24 2)) t nil nil nil) (om-load-boxcall (quote bastype) "list 6" (quote list) (quote nil) (om-make-point 589 508) (om-make-point 48 28) 1900 "1900$" nil) (om-load-boxcall (quote genfun) "OM+ 4" (quote om+) (quote ((om-load-inputfun (quote input-funbox) "number or list" "ARG1" 0) (om-load-inputfun (quote input-funbox) "number or list" "ARG2" 0))) (om-make-point 516 571) nil nil nil nil 1) (om-load-editor-box1 "CHORD 2" (quote chord) (quote ((om-load-inputfun (quote input-funbox) "object" "self" nil) (om-load-inputfun (quote input-funbox) "pitches (list of midicents)" "lmidic" (list 6000)) (om-load-inputfun (quote input-funbox) "velocities (list of values 0-127)" "lvel" (list 100)) (om-load-inputfun (quote input-funbox) "offsets (list of values in ms)" "loffset" (list 0)) (om-load-inputfun (quote input-funbox) "durations (list of values in ms)" "ldur" (list 1000)) (om-load-inputfun (quote input-funbox) "MIDI channels (list of values 0-16)" "lchan" (list 1)))) (om-make-point 552 589) (om-make-point 90 98) (let ((thechord (make-instance (quote chord) :lmidic (quote (7900 6400 5700 7300 7900 7100 7000 7600)) :ldur (quote (1000 1000 1000 1000 1000 1000 1000 1000)) :lvel (quote (100 100 100 100 100 100 100 100)) :loffset (quote (0 0 0 0 0 0 0 0)) :lchan (quote (1 1 1 1 1 1 1 1))))) (load-port-info thechord (quote (0 0 0 0 0 0 0 0))) (init-mus-color thechord (quote nil)) (set-extra-pairs thechord (quote nil)) (set-tonalite thechord nil) thechord) nil nil (pairlis (quote (scale show-stems cursor-mode obj-mode score-mode winpos winsize mode grillestep notechancolor? zoom player inport outport deltapict cmnpref staff fontsize approx)) (list nil (quote t) (quote :normal) 0 0 (om-make-point 0 0) (om-make-point 872 447) 0 1000 nil 1 (quote :jackmidi) 0 nil (om-make-point 0 0) (let ((newobj (make-instance (quote edition-values)))) (setf (paper-size newobj) (om-make-point 600 800)) (setf (top-margin newobj) 2) (setf (left-margin newobj) 1) (setf (right-margin newobj) 1) (setf (bottom-margin newobj) 1) (setf (orientation newobj) nil) (setf (scale newobj) nil) (setf (system-space newobj) (quote (1))) (setf (system-color newobj) (quote nil)) (setf (line-space newobj) 1) (setf (title newobj) nil) (setf (show-title? newobj) nil) (setf (show-page? newobj) nil) (setf (sheet-id newobj) nil) (setf (page-mode newobj) nil) newobj) (quote g) 24 2)) t nil nil nil) (om-load-boxcall (quote abstraction) "inverso" (om-load-patch-abs1 "inverso" (quote ((om-load-boxcall (quote genfun) "DX->X" (quote dx->x) (quote ((om-load-inputfun (quote input-funbox) "a number" "START" 0) (om-load-inputfun (quote input-funbox) "a list of numbers" "LIST" (list 1 1)))) (om-make-point 130 184) nil nil nil nil 1) (om-load-boxcall (quote genfun) "FLAT" (quote flat) (quote ((om-load-inputfun (quote input-funbox) "a list" "LST" nil))) (om-make-point 89 54) nil nil nil nil 1) (om-load-boxcall (quote genfun) "OM*" (quote om*) (quote ((om-load-inputfun (quote input-funbox) "number or list" "ARG1" 0) (om-load-inputfun (quote input-funbox) "number or list" "ARG2" -1))) (om-make-point 188 146) nil nil nil nil 1) (om-load-boxcall (quote genfun) "X->DX" (quote x->dx) (quote ((om-load-inputfun (quote input-funbox) "a list of numbers" "SELF" 0))) (om-make-point 176 82) nil nil nil nil 1) (om-load-boxcall (quote lispfun) "FIRST" (quote first) (quote ((om-load-inputfun (quote input-funbox) "LIST" "LIST" nil))) (om-make-point 98 132) nil nil nil nil 1) (om-load-boxout "output" 0 (om-make-point 121 279) (quote ((om-load-inputfun (quote input-funbox) "" "out" nil))) nil nil) (om-load-boxin "input" 0 (om-make-point 86 0) "" nil nil nil))) (quote ((4 0 0 0 nil 0) (2 0 0 1 nil 0) (6 0 1 0 nil 0) (3 0 2 0 nil 0) (1 0 3 0 nil 0) (1 0 4 0 nil 0) (0 0 5 0 nil 0))) 6.070004 nil "" (om-make-point 0 0) (om-make-point 340 459)) (quote ((om-load-inputfun (quote input-funbox) "" "input" nil))) (om-make-point 512 495) nil (list (list 6000 4500 3800 5400 6000 5200 5100 5700)) nil "inverso") (om-load-boxcall (quote genfun) "FLAT 3" (quote flat) (quote ((om-load-inputfun (quote input-funbox) "a list" "LST" nil) (om-load-inputfun (quote input-funbox) "level of parenthesis" "LEVEL" 1))) (om-make-point 1137 392) nil nil nil nil 1) (om-load-boxcall (quote genfun) "REPEAT-N 2" (quote repeat-n) (quote ((om-load-inputfun (quote input-funbox) "something" "SELF" nil) (om-load-inputfun (quote input-funbox) "times" "N" 3))) (om-make-point 1041 384) nil nil nil nil 1) (om-load-boxcall (quote genfun) "GROUP-LIST 2" (quote group-list) (quote ((om-load-inputfun (quote input-funbox) "list to group" "LIST" (list 1 2 3 4)) (om-load-inputfun (quote input-funbox) "list of group lengths" "SEGMENTATION" (list 1 3 2 1)) (om-load-inputfunmenu1 (quote input-funmenu) "normal or circular" "MODE" (quote linear) (list (list "linear" (quote (quote linear))) (list "circular" (quote (quote circular))))))) (om-make-point 818 400) nil nil nil nil 1) (om-load-boxcall (quote genfun) "PERMUT-RANDOM 2" (quote permut-random) (quote ((om-load-inputfun (quote input-funbox) "a list" "LIST" nil))) (om-make-point 862 298) nil nil nil nil 1) (om-load-boxcall (quote genfun) "OM+ 2" (quote om+) (quote ((om-load-inputfun (quote input-funbox) "number or list" "ARG1" 0) (om-load-inputfun (quote input-funbox) "number or list" "ARG2" 1200))) (om-make-point 895 405) nil nil nil nil 1) (om-load-boxcall (quote genfun) "DX->X 2" (quote dx->x) (quote ((om-load-inputfun (quote input-funbox) "a number" "START" 0) (om-load-inputfun (quote input-funbox) "a list of numbers" "LIST" (list 1 1)))) (om-make-point 962 281) nil nil nil nil 1) (om-load-boxcall (quote genfun) "FLAT 2" (quote flat) (quote ((om-load-inputfun (quote input-funbox) "a list" "LST" nil))) (om-make-point 921 151) nil nil nil nil 1) (om-load-boxcall (quote genfun) "OM* 2" (quote om*) (quote ((om-load-inputfun (quote input-funbox) "number or list" "ARG1" 0) (om-load-inputfun (quote input-funbox) "number or list" "ARG2" -1))) (om-make-point 1020 243) nil nil nil nil 1) (om-load-boxcall (quote genfun) "X->DX 2" (quote x->dx) (quote ((om-load-inputfun (quote input-funbox) "a list of numbers" "SELF" 0))) (om-make-point 1008 179) nil nil nil nil 1) (om-load-boxcall (quote lispfun) "FIRST" (quote first) (quote ((om-load-inputfun (quote input-funbox) "LIST" "LIST" nil))) (om-make-point 930 229) nil nil nil nil 1) (om-load-editor-box1 "CHORD-SEQ 10" (quote chord-seq) (quote ((om-load-inputfun (quote input-funbox) "object" "self" nil) (om-load-inputfun (quote input-funbox) "pitches (mc): list or list of lists" "lmidic" (list 6000)) (om-load-inputfun (quote input-funbox) "onsets (ms): list" "lonset" (list 0 1000)) (om-load-inputfun (quote input-funbox) "durations (ms): list or list of lists" "ldur" (list 1000)) (om-load-inputfun (quote input-funbox) "velocities (0-127): list or list of lists" "lvel" (list 100)) (om-load-inputfun (quote input-funbox) "offsets (ms): list or list of lists" "loffset" (list 0)) (om-load-inputfun (quote input-funbox) "MIDI channels (1-16): list or list of lists" "lchan" (list 1)) (om-load-inputfun (quote input-funbox) "relative chords duration (0-100)" "legato" 0))) (om-make-point 1080 629) (om-make-point 106 139) (let ((newobj (when (find-class (quote chord-seq) nil) (make-instance (quote chord-seq) :lmidic (quote ((4000 4800 5800) (6700 7400 6300) (8400 6300 6000))) :lonset (quote (0 111 444 1444)) :ldur (quote ((1000 1000 1000) (1000 1000 1000) (1000 1000 1000))) :lvel (quote ((100 100 100) (100 100 100) (100 100 100))) :loffset (quote ((0 0 0) (0 0 0) (0 0 0))) :lchan (quote ((1 1 1) (1 1 1) (1 1 1))) :legato 0)))) (load-port-info newobj (quote ((0 0 0) (0 0 0) (0 0 0)))) (init-mus-color newobj (quote nil)) (set-extra-pairs newobj (quote nil)) (set-patch-pairs newobj (quote nil)) (set-name newobj nil) (set-tonalite newobj nil) newobj) "x" nil (pairlis (quote (scale show-stems cursor-mode obj-mode score-mode winpos winsize mode grillestep notechancolor? zoom player inport outport deltapict cmnpref staff fontsize approx)) (list nil (quote t) (quote :normal) 1 0 (om-make-point 0 0) (om-make-point 684 366) 0 1000 nil 1 (quote :jackmidi) 0 nil (om-make-point 0 0) (let ((newobj (make-instance (quote edition-values)))) (setf (paper-size newobj) (om-make-point 600 800)) (setf (top-margin newobj) 2) (setf (left-margin newobj) 1) (setf (right-margin newobj) 1) (setf (bottom-margin newobj) 1) (setf (orientation newobj) nil) (setf (scale newobj) nil) (setf (system-space newobj) (quote (1))) (setf (system-color newobj) (quote nil)) (setf (line-space newobj) 1) (setf (title newobj) nil) (setf (show-title? newobj) nil) (setf (show-page? newobj) nil) (setf (sheet-id newobj) nil) (setf (page-mode newobj) nil) newobj) (quote gf) 28 2)) t nil nil nil) (om-load-editor-box1 "CHORD-SEQ 8" (quote chord-seq) (quote ((om-load-inputfun (quote input-funbox) "object" "self" nil) (om-load-inputfun (quote input-funbox) "pitches (mc): list or list of lists" "lmidic" (list 6000)) (om-load-inputfun (quote input-funbox) "onsets (ms): list" "lonset" (list 0 1000)) (om-load-inputfun (quote input-funbox) "durations (ms): list or list of lists" "ldur" (list 1000)) (om-load-inputfun (quote input-funbox) "velocities (0-127): list or list of lists" "lvel" (list 100)) (om-load-inputfun (quote input-funbox) "offsets (ms): list or list of lists" "loffset" (list 0)) (om-load-inputfun (quote input-funbox) "MIDI channels (1-16): list or list of lists" "lchan" (list 1)) (om-load-inputfun (quote input-funbox) "relative chords duration (0-100)" "legato" 0))) (om-make-point 858 630) (om-make-point 106 139) (let ((newobj (when (find-class (quote chord-seq) nil) (make-instance (quote chord-seq) :lmidic (quote ((7400 4800 5100) (4600 6000 9600) (3900 7900 6400))) :lonset (quote (0 333 444 1444)) :ldur (quote ((1000 1000 1000) (1000 1000 1000) (1000 1000 1000))) :lvel (quote ((100 100 100) (100 100 100) (100 100 100))) :loffset (quote ((0 0 0) (0 0 0) (0 0 0))) :lchan (quote ((1 1 1) (1 1 1) (1 1 1))) :legato 0)))) (load-port-info newobj (quote ((0 0 0) (0 0 0) (0 0 0)))) (init-mus-color newobj (quote nil)) (set-extra-pairs newobj (quote nil)) (set-patch-pairs newobj (quote nil)) (set-name newobj nil) (set-tonalite newobj nil) newobj) "x" nil (pairlis (quote (scale show-stems cursor-mode obj-mode score-mode winpos winsize mode grillestep notechancolor? zoom player inport outport deltapict cmnpref staff fontsize approx)) (list nil (quote t) (quote :normal) 1 0 (om-make-point 0 0) (om-make-point 684 366) 0 1000 nil 1 (quote :jackmidi) 0 nil (om-make-point 0 0) (let ((newobj (make-instance (quote edition-values)))) (setf (paper-size newobj) (om-make-point 600 800)) (setf (top-margin newobj) 2) (setf (left-margin newobj) 1) (setf (right-margin newobj) 1) (setf (bottom-margin newobj) 1) (setf (orientation newobj) nil) (setf (scale newobj) nil) (setf (system-space newobj) (quote (1))) (setf (system-color newobj) (quote nil)) (setf (line-space newobj) 1) (setf (title newobj) nil) (setf (show-title? newobj) nil) (setf (show-page? newobj) nil) (setf (sheet-id newobj) nil) (setf (page-mode newobj) nil) newobj) (quote gf) 28 2)) t nil nil nil) (om-load-editor-box1 "CHORD-SEQ 7" (quote chord-seq) (quote ((om-load-inputfun (quote input-funbox) "object" "self" nil) (om-load-inputfun (quote input-funbox) "pitches (mc): list or list of lists" "lmidic" (list 6000)) (om-load-inputfun (quote input-funbox) "onsets (ms): list" "lonset" (list 0 1000)) (om-load-inputfun (quote input-funbox) "durations (ms): list or list of lists" "ldur" (list 1000)) (om-load-inputfun (quote input-funbox) "velocities (0-127): list or list of lists" "lvel" (list 100)) (om-load-inputfun (quote input-funbox) "offsets (ms): list or list of lists" "loffset" (list 0)) (om-load-inputfun (quote input-funbox) "MIDI channels (1-16): list or list of lists" "lchan" (list 1)) (om-load-inputfun (quote input-funbox) "relative chords duration (0-100)" "legato" 0))) (om-make-point 749 631) (om-make-point 106 139) (let ((newobj (when (find-class (quote chord-seq) nil) (make-instance (quote chord-seq) :lmidic (quote ((4800 6400 6300) (4300 8700 3600) (8200 5000 6000))) :lonset (quote (0 111 444 1444)) :ldur (quote ((1000 1000 1000) (1000 1000 1000) (1000 1000 1000))) :lvel (quote ((100 100 100) (100 100 100) (100 100 100))) :loffset (quote ((0 0 0) (0 0 0) (0 0 0))) :lchan (quote ((1 1 1) (1 1 1) (1 1 1))) :legato 0)))) (load-port-info newobj (quote ((0 0 0) (0 0 0) (0 0 0)))) (init-mus-color newobj (quote nil)) (set-extra-pairs newobj (quote nil)) (set-patch-pairs newobj (quote nil)) (set-name newobj nil) (set-tonalite newobj nil) newobj) "x" nil (pairlis (quote (scale show-stems cursor-mode obj-mode score-mode winpos winsize mode grillestep notechancolor? zoom player inport outport deltapict cmnpref staff fontsize approx)) (list nil (quote t) (quote :normal) 1 0 (om-make-point 0 0) (om-make-point 684 366) 0 1000 nil 1 (quote :jackmidi) 0 nil (om-make-point 0 0) (let ((newobj (make-instance (quote edition-values)))) (setf (paper-size newobj) (om-make-point 600 800)) (setf (top-margin newobj) 2) (setf (left-margin newobj) 1) (setf (right-margin newobj) 1) (setf (bottom-margin newobj) 1) (setf (orientation newobj) nil) (setf (scale newobj) nil) (setf (system-space newobj) (quote (1))) (setf (system-color newobj) (quote nil)) (setf (line-space newobj) 1) (setf (title newobj) nil) (setf (show-title? newobj) nil) (setf (show-page? newobj) nil) (setf (sheet-id newobj) nil) (setf (page-mode newobj) nil) newobj) (quote gf) 28 2)) t nil nil nil) (om-load-boxcall (quote genfun) "OM+ 3" (quote om+) (quote ((om-load-inputfun (quote input-funbox) "number or list" "ARG1" 0) (om-load-inputfun (quote input-funbox) "number or list" "ARG2" 0))) (om-make-point 808 301) nil nil nil nil 1) (om-load-boxcall (quote genfun) "OM- 2" (quote om-) (quote ((om-load-inputfun (quote input-funbox) "number or list" "ARG1" 0) (om-load-inputfun (quote input-funbox) "number or list" "ARG2" 3600))) (om-make-point 799 119) nil nil nil nil 1) (om-load-boxcall (quote genfun) "OM*" (quote om*) (quote ((om-load-inputfun (quote input-funbox) "number or list" "ARG1" 0) (om-load-inputfun (quote input-funbox) "number or list" "ARG2" 1200))) (om-make-point 736 108) nil nil nil nil 1) (om-load-boxcall (quote genfun) "OM-RANDOM" (quote om-random) (quote ((om-load-inputfun (quote input-funbox) "min" "LOW" 1) (om-load-inputfun (quote input-funbox) "max" "HIGH" 4))) (om-make-point 708 46) nil nil nil nil 1) (om-load-boxcall (quote lispfun) "LENGTH 2" (quote length) (quote ((om-load-inputfun (quote input-funbox) "SEQUENCE" "SEQUENCE" nil))) (om-make-point 843 180) nil nil nil nil 1) (om-load-boxcall (quote genfun) "REPEAT-N" (quote repeat-n) (quote ((om-load-inputfun (quote input-funbox) "something" "SELF" nil) (om-load-inputfun (quote input-funbox) "times" "N" 0))) (om-make-point 816 232) nil nil nil nil 1) (om-load-editor-box1 "CHORD-SEQ 6" (quote chord-seq) (quote ((om-load-inputfun (quote input-funbox) "object" "self" nil) (om-load-inputfun (quote input-funbox) "pitches (mc): list or list of lists" "lmidic" (list 6000)) (om-load-inputfun (quote input-funbox) "onsets (ms): list" "lonset" (list 0 1000)) (om-load-inputfun (quote input-funbox) "durations (ms): list or list of lists" "ldur" (list 1000)) (om-load-inputfun (quote input-funbox) "velocities (0-127): list or list of lists" "lvel" (list 100)) (om-load-inputfun (quote input-funbox) "offsets (ms): list or list of lists" "loffset" (list 0)) (om-load-inputfun (quote input-funbox) "MIDI channels (1-16): list or list of lists" "lchan" (list 1)) (om-load-inputfun (quote input-funbox) "relative chords duration (0-100)" "legato" 0))) (om-make-point 676 444) (om-make-point 106 139) (let ((newobj (when (find-class (quote chord-seq) nil) (make-instance (quote chord-seq) :lmidic (quote ((6000 5800 9600) (7500 7900 3600) (5000 7600 5100))) :lonset (quote (0 333 444 1444)) :ldur (quote ((1000 1000 1000) (1000 1000 1000) (1000 1000 1000))) :lvel (quote ((100 100 100) (100 100 100) (100 100 100))) :loffset (quote ((0 0 0) (0 0 0) (0 0 0))) :lchan (quote ((1 1 1) (1 1 1) (1 1 1))) :legato 0)))) (load-port-info newobj (quote ((0 0 0) (0 0 0) (0 0 0)))) (init-mus-color newobj (quote nil)) (set-extra-pairs newobj (quote nil)) (set-patch-pairs newobj (quote nil)) (set-name newobj nil) (set-tonalite newobj nil) newobj) nil nil (pairlis (quote (scale show-stems cursor-mode obj-mode score-mode winpos winsize mode grillestep notechancolor? zoom player inport outport deltapict cmnpref staff fontsize approx)) (list nil (quote t) (quote :normal) 1 0 (om-make-point 0 0) (om-make-point 684 366) 0 1000 nil 1 (quote :jackmidi) 0 nil (om-make-point 0 0) (let ((newobj (make-instance (quote edition-values)))) (setf (paper-size newobj) (om-make-point 600 800)) (setf (top-margin newobj) 2) (setf (left-margin newobj) 1) (setf (right-margin newobj) 1) (setf (bottom-margin newobj) 1) (setf (orientation newobj) nil) (setf (scale newobj) nil) (setf (system-space newobj) (quote (1))) (setf (system-color newobj) (quote nil)) (setf (line-space newobj) 1) (setf (title newobj) nil) (setf (show-title? newobj) nil) (setf (show-page? newobj) nil) (setf (sheet-id newobj) nil) (setf (page-mode newobj) nil) newobj) (quote gf) 28 2)) t nil nil nil) (om-load-boxcall (quote genfun) "SORT-LIST" (quote sort-list) (quote ((om-load-inputfun (quote input-funbox) "a list" "LST" nil))) (om-make-point 687 182) nil nil nil nil 1) (om-load-boxcall (quote lispfun) "LENGTH" (quote length) (quote ((om-load-inputfun (quote input-funbox) "SEQUENCE" "SEQUENCE" nil))) (om-make-point 34 156) nil nil nil nil 1) (om-load-boxcall (quote genfun) "PERMUT-RANDOM" (quote permut-random) (quote ((om-load-inputfun (quote input-funbox) "a list" "LIST" nil))) (om-make-point 693 295) (om-make-point 94 60) nil nil nil 1) (om-load-boxcall (quote genfun) "GROUP-LIST" (quote group-list) (quote ((om-load-inputfun (quote input-funbox) "list to group" "LIST" (list 1 2 3 4)) (om-load-inputfun (quote input-funbox) "list of group lengths" "SEGMENTATION" (list 3 3 3)) (om-load-inputfunmenu1 (quote input-funmenu) "normal or circular" "MODE" (quote linear) (list (list "linear" (quote (quote linear))) (list "circular" (quote (quote circular))))))) (om-make-point 616 296) nil nil nil nil 1) (om-load-boxcomment "comment 6" (om-make-point 360 50) (quote "<= porque sobra um onset a mais? - é preciso retirá-lo com um \"butlast\"!") "" (om-make-point 402 0) nil (om-make-color 0 0 0) (om-make-font "Verdana" 12 :family "Verdana" :style (quote (:plain)) :mode (quote nil))) (om-load-boxcall (quote lispfun) "BUTLAST 2" (quote butlast) (quote ((om-load-inputfun (quote input-funbox) "LIST" "LIST" nil))) (om-make-point 353 11) (om-make-point 46 44) nil nil nil 1) (om-load-boxcall (quote genfun) "X->DX" (quote x->dx) (quote ((om-load-inputfun (quote input-funbox) "a list of numbers" "SELF" 0))) (om-make-point 418 61) nil nil nil nil 1) (om-load-boxcall (quote lispfun) "REVERSE" (quote reverse) (quote ((om-load-inputfun (quote input-funbox) "SEQUENCE" "SEQUENCE" nil))) (om-make-point 490 46) nil nil nil nil 1) (om-load-boxcall (quote genfun) "DX->X" (quote dx->x) (quote ((om-load-inputfun (quote input-funbox) "a number" "START" 0) (om-load-inputfun (quote input-funbox) "a list of numbers" "LIST" (list 1 1)))) (om-make-point 560 45) nil nil nil nil 1) (om-load-boxcall (quote genfun) "FLAT" (quote flat) (quote ((om-load-inputfun (quote input-funbox) "a list" "LST" nil))) (om-make-point 466 314) nil nil nil nil 1) (om-load-editor-box1 "CHORD" (quote chord) (quote ((om-load-inputfun (quote input-funbox) "object" "self" nil) (om-load-inputfun (quote input-funbox) "pitches (list of midicents)" "lmidic" (list 6000)) (om-load-inputfun (quote input-funbox) "velocities (list of values 0-127)" "lvel" (list 100)) (om-load-inputfun (quote input-funbox) "offsets (list of values in ms)" "loffset" (list 0)) (om-load-inputfun (quote input-funbox) "durations (list of values in ms)" "ldur" (list 1000)) (om-load-inputfun (quote input-funbox) "MIDI channels (list of values 0-16)" "lchan" (list 1)))) (om-make-point 530 405) (om-make-point 135 88) (let ((thechord (make-instance (quote chord) :lmidic (quote (6000 7500 8200 6600 6000 6800 6900 6300)) :ldur (quote (1000 1000 1000 1000 1000 1000 1000 1000)) :lvel (quote (100 100 100 100 100 100 100 100)) :loffset (quote (0 0 0 0 0 0 0 0)) :lchan (quote (1 1 1 1 1 1 1 1))))) (load-port-info thechord (quote (0 0 0 0 0 0 0 0))) (init-mus-color thechord (quote nil)) (set-extra-pairs thechord (quote nil)) (set-tonalite thechord nil) thechord) nil nil (pairlis (quote (scale show-stems cursor-mode obj-mode score-mode winpos winsize mode grillestep notechancolor? zoom player inport outport deltapict cmnpref staff fontsize approx)) (list nil (quote t) (quote :normal) 0 0 (om-make-point 0 0) (om-make-point 872 447) 0 1000 nil 1 (quote :jackmidi) 0 nil (om-make-point 0 0) (let ((newobj (make-instance (quote edition-values)))) (setf (paper-size newobj) (om-make-point 600 800)) (setf (top-margin newobj) 2) (setf (left-margin newobj) 1) (setf (right-margin newobj) 1) (setf (bottom-margin newobj) 1) (setf (orientation newobj) nil) (setf (scale newobj) nil) (setf (system-space newobj) (quote (1))) (setf (system-color newobj) (quote nil)) (setf (line-space newobj) 1) (setf (title newobj) nil) (setf (show-title? newobj) nil) (setf (show-page? newobj) nil) (setf (sheet-id newobj) nil) (setf (page-mode newobj) nil) newobj) (quote g) 24 2)) t nil nil nil) (om-load-boxcall (quote lispfun) "PRINT" (quote print) (quote ((om-load-inputfun (quote input-funbox) "SOMETHING" "SOMETHING" nil))) (om-make-point 175 190) nil nil nil nil 1) (om-load-boxcomment "comment" (om-make-point 224 28) (quote "12 semitons * 100 cents de tom") "" (om-make-point 139 422) nil (om-make-color 0 0 0) (om-make-font "Bitstream Vera Sans" 12 :family "Bitstream Vera Sans" :style (quote (:plain)) :mode (quote nil))) (om-load-boxcall (quote genfun) "OM+" (quote om+) (quote ((om-load-inputfun (quote input-funbox) "number or list" "ARG1" 0) (om-load-inputfun (quote input-funbox) "number or list" "ARG2" 0))) (om-make-point 335 406) nil nil nil nil 1) (om-load-editor-box1 "CHORD-SEQ 5" (quote chord-seq) (quote ((om-load-inputfun (quote input-funbox) "object" "self" nil) (om-load-inputfun (quote input-funbox) "pitches (mc): list or list of lists" "lmidic" (list 6000)) (om-load-inputfun (quote input-funbox) "onsets (ms): list" "lonset" (list 0 1000)) (om-load-inputfun (quote input-funbox) "durations (ms): list or list of lists" "ldur" (list 1000)) (om-load-inputfun (quote input-funbox) "velocities (0-127): list or list of lists" "lvel" (list 100)) (om-load-inputfun (quote input-funbox) "offsets (ms): list or list of lists" "loffset" (list 0)) (om-load-inputfun (quote input-funbox) "MIDI channels (1-16): list or list of lists" "lchan" (list 1)) (om-load-inputfun (quote input-funbox) "relative chords duration (0-100)" "legato" 0))) (om-make-point 280 448) (om-make-point 223 136) (let ((newobj (when (find-class (quote chord-seq) nil) (make-instance (quote chord-seq) :lmidic (quote ((7500) (8100) (8000) (7200) (7800) (7200 8700 9400))) :lonset (quote (0 347 833 1319 1764 2069 3069)) :ldur (quote ((1000) (1000) (1000) (1000) (1000) (1000 1000 1000))) :lvel (quote ((100) (100) (100) (100) (100) (100 100 100))) :loffset (quote ((0) (0) (0) (0) (0) (0 0 0))) :lchan (quote ((1) (1) (1) (1) (1) (1 1 1))) :legato 0)))) (load-port-info newobj (quote ((0) (0) (0) (0) (0) (0 0 0)))) (init-mus-color newobj (quote nil)) (set-extra-pairs newobj (quote nil)) (set-patch-pairs newobj (quote nil)) (set-name newobj nil) (set-tonalite newobj nil) newobj) nil nil (pairlis (quote (scale show-stems cursor-mode obj-mode score-mode winpos winsize mode grillestep notechancolor? zoom player inport outport deltapict cmnpref staff fontsize approx)) (list nil (quote t) (quote :normal) 1 0 (om-make-point 0 0) (om-make-point 673 429) 0 1000 nil 1 (quote :jackmidi) 0 nil (om-make-point 0 0) (let ((newobj (make-instance (quote edition-values)))) (setf (paper-size newobj) (om-make-point 600 800)) (setf (top-margin newobj) 2) (setf (left-margin newobj) 1) (setf (right-margin newobj) 1) (setf (bottom-margin newobj) 1) (setf (orientation newobj) nil) (setf (scale newobj) nil) (setf (system-space newobj) (quote (1))) (setf (system-color newobj) (quote nil)) (setf (line-space newobj) 1) (setf (title newobj) nil) (setf (show-title? newobj) nil) (setf (show-page? newobj) nil) (setf (sheet-id newobj) nil) (setf (page-mode newobj) nil) newobj) (quote gg) 24 2)) t nil nil nil) (om-load-boxcomment "comment 5" (om-make-point 117 29) (quote "oitavado acima$") "" (om-make-point 374 587) nil (om-make-color 0 0 0) (om-make-font "Bitstream Vera Sans" 12 :family "Bitstream Vera Sans" :style (quote (:plain)) :mode (quote nil))) (om-load-boxcomment "comment 4" (om-make-point 110 126) (quote "ritmo retrogrado -$mesmas notas$com$ritmo tocado $valores de tras$pra frente") "" (om-make-point 497 151) nil (om-make-color 0 0 0) (om-make-font "Bitstream Vera Sans" 12 :family "Bitstream Vera Sans" :style (quote (:plain)) :mode (quote nil))) (om-load-editor-box1 "CHORD-SEQ 4" (quote chord-seq) (quote ((om-load-inputfun (quote input-funbox) "object" "self" nil) (om-load-inputfun (quote input-funbox) "pitches (mc): list or list of lists" "lmidic" (list 6000)) (om-load-inputfun (quote input-funbox) "onsets (ms): list" "lonset" (list 0 1000)) (om-load-inputfun (quote input-funbox) "durations (ms): list or list of lists" "ldur" (list 1000)) (om-load-inputfun (quote input-funbox) "velocities (0-127): list or list of lists" "lvel" (list 100)) (om-load-inputfun (quote input-funbox) "offsets (ms): list or list of lists" "loffset" (list 0)) (om-load-inputfun (quote input-funbox) "MIDI channels (1-16): list or list of lists" "lchan" (list 1)) (om-load-inputfun (quote input-funbox) "relative chords duration (0-100)" "legato" 0))) (om-make-point 275 152) (om-make-point 223 123) (let ((newobj (when (find-class (quote chord-seq) nil) (make-instance (quote chord-seq) :lmidic (quote ((6000 7500 8200) (6600) (6000) (6800) (6900) (6300))) :lonset (quote (0 305 750 1236 1722 2069 3069)) :ldur (quote ((1000 1000 1000) (1000) (1000) (1000) (1000) (1000))) :lvel (quote ((100 100 100) (100) (100) (100) (100) (100))) :loffset (quote ((0 0 0) (0) (0) (0) (0) (0))) :lchan (quote ((1 1 1) (1) (1) (1) (1) (1))) :legato 0)))) (load-port-info newobj (quote ((0 0 0) (0) (0) (0) (0) (0)))) (init-mus-color newobj (quote nil)) (set-extra-pairs newobj (quote nil)) (set-patch-pairs newobj (quote nil)) (set-name newobj nil) (set-tonalite newobj nil) newobj) nil nil (pairlis (quote (scale show-stems cursor-mode obj-mode score-mode winpos winsize mode grillestep notechancolor? zoom player inport outport deltapict cmnpref staff fontsize approx)) (list nil (quote t) (quote :normal) 1 0 (om-make-point 0 0) (om-make-point 370 280) 0 1000 nil 1 (quote :jackmidi) 0 nil (om-make-point 0 0) (let ((newobj (make-instance (quote edition-values)))) (setf (paper-size newobj) (om-make-point 600 800)) (setf (top-margin newobj) 2) (setf (left-margin newobj) 1) (setf (right-margin newobj) 1) (setf (bottom-margin newobj) 1) (setf (orientation newobj) nil) (setf (scale newobj) nil) (setf (system-space newobj) (quote (1))) (setf (system-color newobj) (quote nil)) (setf (line-space newobj) 1) (setf (title newobj) nil) (setf (show-title? newobj) nil) (setf (show-page? newobj) nil) (setf (sheet-id newobj) nil) (setf (page-mode newobj) nil) newobj) (quote g) 24 2)) t nil nil nil) (om-load-boxcomment "comment 3" (om-make-point 110 96) (quote "melodia retrograda -$notas tocadas de $tras pra frente no mesmo ritmo") "" (om-make-point 268 283) nil (om-make-color 0 0 0) (om-make-font "Bitstream Vera Sans" 12 :family "Bitstream Vera Sans" :style (quote (:plain)) :mode (quote nil))) (om-load-boxcomment "comment 2" (om-make-point 117 29) (quote "oitavado abaixo") "" (om-make-point 173 598) nil (om-make-color 0 0 0) (om-make-font "Bitstream Vera Sans" 12 :family "Bitstream Vera Sans" :style (quote (:plain)) :mode (quote nil))) (om-load-boxcomment "comment" (om-make-point 72 30) (quote "original") "" (om-make-point 278 12) nil (om-make-color 0 0 0) (om-make-font "Bitstream Vera Sans" 12 :family "Bitstream Vera Sans" :style (quote (:plain)) :mode (quote nil))) (om-load-boxcall (quote bastype) "list" (quote list) (quote nil) (om-make-point 405 376) (om-make-point 48 32) 1200 "1200" nil) (om-load-boxcall (quote genfun) "OM-" (quote om-) (quote ((om-load-inputfun (quote input-funbox) "number or list" "ARG1" 0) (om-load-inputfun (quote input-funbox) "number or list" "ARG2" 1200))) (om-make-point 81 402) nil nil nil nil 1) (om-load-editor-box1 "CHORD-SEQ 3" (quote chord-seq) (quote ((om-load-inputfun (quote input-funbox) "object" "self" nil) (om-load-inputfun (quote input-funbox) "pitches (mc): list or list of lists" "lmidic" (list 6000)) (om-load-inputfun (quote input-funbox) "onsets (ms): list" "lonset" (list 0 1000)) (om-load-inputfun (quote input-funbox) "durations (ms): list or list of lists" "ldur" (list 1000)) (om-load-inputfun (quote input-funbox) "velocities (0-127): list or list of lists" "lvel" (list 100)) (om-load-inputfun (quote input-funbox) "offsets (ms): list or list of lists" "loffset" (list 0)) (om-load-inputfun (quote input-funbox) "MIDI channels (1-16): list or list of lists" "lchan" (list 1)) (om-load-inputfun (quote input-funbox) "relative chords duration (0-100)" "legato" 0))) (om-make-point 47 447) (om-make-point 223 157) (let ((newobj (when (find-class (quote chord-seq) nil) (make-instance (quote chord-seq) :lmidic (quote ((5100) (5700) (5600) (4800) (5400) (4800 6300 7000))) :lonset (quote (0 347 833 1319 1764 2069 3069)) :ldur (quote ((1000) (1000) (1000) (1000) (1000) (1000 1000 1000))) :lvel (quote ((100) (100) (100) (100) (100) (100 100 100))) :loffset (quote ((0) (0) (0) (0) (0) (0 0 0))) :lchan (quote ((1) (1) (1) (1) (1) (1 1 1))) :legato 0)))) (load-port-info newobj (quote ((0) (0) (0) (0) (0) (0 0 0)))) (init-mus-color newobj (quote nil)) (set-extra-pairs newobj (quote nil)) (set-patch-pairs newobj (quote nil)) (set-name newobj nil) (set-tonalite newobj nil) newobj) nil nil (pairlis (quote (scale show-stems cursor-mode obj-mode score-mode winpos winsize mode grillestep notechancolor? zoom player inport outport deltapict cmnpref staff fontsize approx)) (list nil (quote t) (quote :normal) 1 0 (om-make-point 0 0) (om-make-point 646 335) 0 1000 nil 1 (quote :jackmidi) 0 nil (om-make-point 0 0) (let ((newobj (make-instance (quote edition-values)))) (setf (paper-size newobj) (om-make-point 600 800)) (setf (top-margin newobj) 2) (setf (left-margin newobj) 1) (setf (right-margin newobj) 1) (setf (bottom-margin newobj) 1) (setf (orientation newobj) nil) (setf (scale newobj) nil) (setf (system-space newobj) (quote (1))) (setf (system-color newobj) (quote nil)) (setf (line-space newobj) 1) (setf (title newobj) nil) (setf (show-title? newobj) nil) (setf (show-page? newobj) nil) (setf (sheet-id newobj) nil) (setf (page-mode newobj) nil) newobj) (quote gf) 24 2)) t nil nil nil) (om-load-boxcall (quote lispfun) "REVERSE" (quote reverse) (quote ((om-load-inputfun (quote input-funbox) "SEQUENCE" "SEQUENCE" nil))) (om-make-point 71 197) nil nil nil nil 1) (om-load-editor-box1 "CHORD-SEQ 2" (quote chord-seq) (quote ((om-load-inputfun (quote input-funbox) "object" "self" nil) (om-load-inputfun (quote input-funbox) "pitches (mc): list or list of lists" "lmidic" (list 6000)) (om-load-inputfun (quote input-funbox) "onsets (ms): list" "lonset" (list 0 1000)) (om-load-inputfun (quote input-funbox) "durations (ms): list or list of lists" "ldur" (list 1000)) (om-load-inputfun (quote input-funbox) "velocities (0-127): list or list of lists" "lvel" (list 100)) (om-load-inputfun (quote input-funbox) "offsets (ms): list or list of lists" "loffset" (list 0)) (om-load-inputfun (quote input-funbox) "MIDI channels (1-16): list or list of lists" "lchan" (list 1)) (om-load-inputfun (quote input-funbox) "relative chords duration (0-100)" "legato" 0))) (om-make-point 47 263) (om-make-point 223 123) (let ((newobj (when (find-class (quote chord-seq) nil) (make-instance (quote chord-seq) :lmidic (quote ((6300) (6900) (6800) (6000) (6600) (6000 7500 8200))) :lonset (quote (0 347 833 1319 1764 2069 3069)) :ldur (quote ((1000) (1000) (1000) (1000) (1000) (1000 1000 1000))) :lvel (quote ((100) (100) (100) (100) (100) (100 100 100))) :loffset (quote ((0) (0) (0) (0) (0) (0 0 0))) :lchan (quote ((1) (1) (1) (1) (1) (1 1 1))) :legato 0)))) (load-port-info newobj (quote ((0) (0) (0) (0) (0) (0 0 0)))) (init-mus-color newobj (quote nil)) (set-extra-pairs newobj (quote nil)) (set-patch-pairs newobj (quote nil)) (set-name newobj nil) (set-tonalite newobj nil) newobj) "x" nil (pairlis (quote (scale show-stems cursor-mode obj-mode score-mode winpos winsize mode grillestep notechancolor? zoom player inport outport deltapict cmnpref staff fontsize approx)) (list nil (quote t) (quote :normal) 1 0 (om-make-point 0 0) (om-make-point 370 280) 0 1000 nil 1 (quote :jackmidi) 0 nil (om-make-point 0 0) (let ((newobj (make-instance (quote edition-values)))) (setf (paper-size newobj) (om-make-point 600 800)) (setf (top-margin newobj) 2) (setf (left-margin newobj) 1) (setf (right-margin newobj) 1) (setf (bottom-margin newobj) 1) (setf (orientation newobj) nil) (setf (scale newobj) nil) (setf (system-space newobj) (quote (1))) (setf (system-color newobj) (quote nil)) (setf (line-space newobj) 1) (setf (title newobj) nil) (setf (show-title? newobj) nil) (setf (show-page? newobj) nil) (setf (sheet-id newobj) nil) (setf (page-mode newobj) nil) newobj) (quote g) 24 2)) t nil nil nil) (om-load-editor-box1 "CHORD-SEQ" (quote chord-seq) (quote ((om-load-inputfun (quote input-funbox) "object" "self" nil) (om-load-inputfun (quote input-funbox) "pitches (mc): list or list of lists" "lmidic" (list 6000)) (om-load-inputfun (quote input-funbox) "onsets (ms): list" "lonset" (list 0 1000)) (om-load-inputfun (quote input-funbox) "durations (ms): list or list of lists" "ldur" (list 1000)) (om-load-inputfun (quote input-funbox) "velocities (0-127): list or list of lists" "lvel" (list 100)) (om-load-inputfun (quote input-funbox) "offsets (ms): list or list of lists" "loffset" (list 0)) (om-load-inputfun (quote input-funbox) "MIDI channels (1-16): list or list of lists" "lchan" (list 1)) (om-load-inputfun (quote input-funbox) "relative chords duration (0-100)" "legato" 0))) (om-make-point 57 11) (om-make-point 223 123) (let ((newobj (when (find-class (quote chord-seq) nil) (let ((rep (make-instance (quote chord-seq) :lmidic (quote ((6000 7500 8200) (6600) (6000) (6800) (6900) (6300))) :lonset (quote (0 347 833 1319 1764 2069 3069)) :ldur (quote ((1000 1000 1000) (1000) (1000) (1000) (1000) (1000))) :lvel (quote ((100 100 100) (100) (100) (100) (100) (100))) :loffset (quote ((0 0 0) (0) (0) (0) (0) (0))) :lchan (quote ((1 1 1) (1) (1) (1) (1) (1))) :legato 0))) (restore-tonalite rep (quote ((0 (make-instance (quote tonalite-modulee) :tonnote (quote la) :tonalt (quote bemol) :mode (quote (0 200 400 500 700 900 1100)))) ((3 0) (make-instance (quote simple-tonalite) :tonnote (quote la) :tonalt (quote bemol) :mode (quote (0 200 400 500 700 900 1100)))) ((5 0) (make-instance (quote simple-tonalite) :tonnote (quote mi) :tonalt (quote bemol) :mode (quote (0 200 400 500 700 900 1100))))))) rep)))) (load-port-info newobj (quote ((0 0 0) (0) (0) (0) (0) (0)))) (init-mus-color newobj (quote nil)) (set-extra-pairs newobj (quote nil)) (set-patch-pairs newobj (quote ((nil (om-load-patch-abs1 "patch" (quote nil) (quote nil) 6.070004 nil "" (om-make-point 200 200) (om-make-point 400 500))) ((0) (om-load-patch-abs1 "patch" (quote nil) (quote nil) 6.070004 nil "" (om-make-point 200 200) (om-make-point 400 500)))))) (set-name newobj nil) (set-tonalite newobj nil) newobj) "x" nil (pairlis (quote (scale show-stems cursor-mode obj-mode score-mode winpos winsize mode grillestep notechancolor? zoom player inport outport deltapict cmnpref staff fontsize approx)) (list nil (quote t) (quote :normal) 0 0 (om-make-point 0 0) (om-make-point 869 296) 0 1000 nil 1 (quote :jackmidi) 0 nil (om-make-point 0 0) (let ((newobj (make-instance (quote edition-values)))) (setf (paper-size newobj) (om-make-point 600 800)) (setf (top-margin newobj) 2) (setf (left-margin newobj) 1) (setf (right-margin newobj) 1) (setf (bottom-margin newobj) 1) (setf (orientation newobj) nil) (setf (scale newobj) nil) (setf (system-space newobj) (quote (1))) (setf (system-color newobj) (quote nil)) (setf (line-space newobj) 1) (setf (title newobj) nil) (setf (show-title? newobj) nil) (setf (show-page? newobj) nil) (setf (sheet-id newobj) nil) (setf (page-mode newobj) nil) newobj) (quote g) 24 2)) t nil nil nil))) (quote ((2 0 0 0 nil 5) (4 0 2 0 nil 0) (5 0 4 0 nil 0) (3 0 4 1 nil 0) (27 1 12 0 nil 1) (27 2 13 0 nil 0) (12 0 14 1 nil 1) (13 0 14 2 nil 2) (21 0 15 1 nil 0) (69 2 15 2 nil 2) (17 0 16 0 nil 0) (18 0 17 0 nil 1) (69 1 18 0 nil 1) (22 0 19 0 nil 0) (19 0 20 0 nil 0) (26 0 20 1 nil 0) (69 1 21 0 nil 1) (2 0 21 1 nil 5) (16 0 21 2 nil 0) (23 0 22 0 nil 0) (78 1 23 0 nil 0) (78 1 25 0 nil 0) (25 0 26 0 nil 0) (20 0 27 1 nil 0) (78 2 27 2 nil 0) (35 0 28 1 nil 0) (34 0 32 0 nil 0) (31 0 32 1 nil 0) (32 0 33 1 nil 0) (65 1 34 0 nil 0) (36 0 35 0 nil 0) (39 0 36 0 nil 0) (38 0 37 0 nil 0) (40 0 38 0 nil 0) (37 0 39 0 nil 0) (24 0 39 1 nil 0) (44 0 40 0 nil 0) (42 0 40 1 nil 0) (30 1 41 0 nil 0) (43 0 42 0 nil 0) (41 0 43 0 ((om-make-point 932 209) (om-make-point 973 207) (om-make-point 980 174) (om-make-point 1029 174) (om-make-point 1029 179)) 0) (41 0 44 0 nil 0) (55 0 48 0 nil 0) (53 0 48 1 nil 0) (50 0 49 0 nil 0) (51 0 50 0 nil 0) (55 0 52 0 nil 0) (49 0 53 0 nil 0) (52 0 53 1 nil 0) (58 0 54 1 ((om-make-point 644 354) (om-make-point 644 399) (om-make-point 690 420) (om-make-point 700 444)) 0) (7 0 54 2 nil 0) (64 0 55 0 nil 0) (81 1 56 0 nil 0) (48 0 57 0 nil 0) (57 0 58 0 nil 0) (81 2 60 0 ((om-make-point 130 132) (om-make-point 250 169) (om-make-point 307 107) (om-make-point 293 57) (om-make-point 376 11)) 2) (60 0 61 0 ((om-make-point 374 53) (om-make-point 397 97) (om-make-point 404 58) (om-make-point 439 38) (om-make-point 439 61)) 2) (61 0 62 0 nil 2) (62 0 63 1 nil 2) (72 1 64 0 nil 1) (64 0 65 1 nil 5) (81 2 66 0 nil 2) (80 1 68 0 nil 1) (76 0 68 1 ((om-make-point 427 406) (om-make-point 423 420) (om-make-point 403 425) (om-make-point 390 407) (om-make-point 349 406)) 3) (68 0 69 1 nil 1) (80 2 69 2 ((om-make-point 120 384) (om-make-point 122 416) (om-make-point 359 381) (om-make-point 355 448)) 2) (81 1 72 1 nil 1) (63 0 72 2 nil 2) (80 1 77 0 nil 1) (76 0 77 1 ((om-make-point 427 406) (om-make-point 403 402) (om-make-point 208 405) (om-make-point 126 419) (om-make-point 95 402)) 3) (77 0 78 1 nil 1) (80 2 78 2 nil 2) (81 1 79 0 nil 1) (79 0 80 1 nil 1) (81 2 80 2 nil 2))) nil 6.070004))
